M48
; DRILL file {KiCad (5.1.9)-1} date 03/20/21 14:40:23
; FORMAT={-:-/ absolute / metric / decimal}
; #@! TF.CreationDate,2021-03-20T14:40:23+09:00
; #@! TF.GenerationSoftware,Kicad,Pcbnew,(5.1.9)-1
FMAT,2
METRIC
T1C0.400
T2C0.600
T3C1.000
%
G90
G05
T1
X136.79Y-110.67
X137.123Y-93.455
X138.74Y-93.979
X143.944Y-107.756
X156.054Y-92.246
X161.154Y-111.803
X162.036Y-106.046
X162.357Y-89.852
T2
X141.45Y-96.8
X141.45Y-98.4
X141.45Y-100.0
X141.45Y-101.6
X141.45Y-103.2
X143.05Y-96.0
X143.05Y-97.6
X143.05Y-99.2
X143.05Y-100.8
X143.05Y-102.4
X143.05Y-104.0
X146.0Y-93.05
X146.0Y-106.95
X146.8Y-91.45
X146.8Y-108.55
X147.6Y-93.05
X147.6Y-106.95
X148.4Y-91.45
X148.4Y-108.55
X149.2Y-93.05
X149.2Y-106.95
X150.0Y-91.45
X150.0Y-108.55
X150.8Y-93.05
X150.8Y-106.95
X151.6Y-91.45
X151.6Y-108.55
X152.4Y-93.05
X152.4Y-106.95
X153.2Y-91.45
X153.2Y-108.55
X154.0Y-93.05
X154.0Y-106.95
X156.95Y-96.0
X156.95Y-97.6
X156.95Y-99.2
X156.95Y-100.8
X156.95Y-102.4
X156.95Y-104.0
X158.55Y-96.8
X158.55Y-98.4
X158.55Y-100.0
X158.55Y-101.6
X158.55Y-103.2
T3
X130.95Y-73.33
X130.95Y-75.87
X130.95Y-78.41
X130.95Y-80.95
X130.95Y-83.49
X130.95Y-86.03
X130.95Y-88.57
X130.95Y-91.11
X130.95Y-93.65
X130.95Y-96.19
X130.95Y-98.73
X130.95Y-101.27
X130.95Y-103.81
X130.95Y-106.35
X130.95Y-108.89
X130.95Y-111.43
X130.95Y-113.97
X130.95Y-116.51
X130.95Y-119.05
X130.95Y-121.59
X130.95Y-124.13
X130.95Y-126.67
X169.05Y-73.33
X169.05Y-75.87
X169.05Y-78.41
X169.05Y-80.95
X169.05Y-83.49
X169.05Y-86.03
X169.05Y-88.57
X169.05Y-91.11
X169.05Y-93.65
X169.05Y-96.19
X169.05Y-98.73
X169.05Y-101.27
X169.05Y-103.81
X169.05Y-106.35
X169.05Y-108.89
X169.05Y-111.43
X169.05Y-113.97
X169.05Y-116.51
X169.05Y-119.05
X169.05Y-121.59
X169.05Y-124.13
X169.05Y-126.67
T0
M30
