%TF.GenerationSoftware,KiCad,Pcbnew,(5.1.9)-1*%
%TF.CreationDate,2021-03-20T14:40:21+09:00*%
%TF.ProjectId,converter_IC51-0444-467,636f6e76-6572-4746-9572-5f494335312d,1*%
%TF.SameCoordinates,Original*%
%TF.FileFunction,Legend,Top*%
%TF.FilePolarity,Positive*%
%FSLAX46Y46*%
G04 Gerber Fmt 4.6, Leading zero omitted, Abs format (unit mm)*
G04 Created by KiCad (PCBNEW (5.1.9)-1) date 2021-03-20 14:40:21*
%MOMM*%
%LPD*%
G01*
G04 APERTURE LIST*
%ADD10C,0.150000*%
%ADD11C,0.180000*%
%ADD12C,0.120000*%
G04 APERTURE END LIST*
D10*
X143976190Y-125852380D02*
X143976190Y-124852380D01*
X145023809Y-125757142D02*
X144976190Y-125804761D01*
X144833333Y-125852380D01*
X144738095Y-125852380D01*
X144595238Y-125804761D01*
X144500000Y-125709523D01*
X144452380Y-125614285D01*
X144404761Y-125423809D01*
X144404761Y-125280952D01*
X144452380Y-125090476D01*
X144500000Y-124995238D01*
X144595238Y-124900000D01*
X144738095Y-124852380D01*
X144833333Y-124852380D01*
X144976190Y-124900000D01*
X145023809Y-124947619D01*
X145928571Y-124852380D02*
X145452380Y-124852380D01*
X145404761Y-125328571D01*
X145452380Y-125280952D01*
X145547619Y-125233333D01*
X145785714Y-125233333D01*
X145880952Y-125280952D01*
X145928571Y-125328571D01*
X145976190Y-125423809D01*
X145976190Y-125661904D01*
X145928571Y-125757142D01*
X145880952Y-125804761D01*
X145785714Y-125852380D01*
X145547619Y-125852380D01*
X145452380Y-125804761D01*
X145404761Y-125757142D01*
X146928571Y-125852380D02*
X146357142Y-125852380D01*
X146642857Y-125852380D02*
X146642857Y-124852380D01*
X146547619Y-124995238D01*
X146452380Y-125090476D01*
X146357142Y-125138095D01*
X147357142Y-125471428D02*
X148119047Y-125471428D01*
X148785714Y-124852380D02*
X148880952Y-124852380D01*
X148976190Y-124900000D01*
X149023809Y-124947619D01*
X149071428Y-125042857D01*
X149119047Y-125233333D01*
X149119047Y-125471428D01*
X149071428Y-125661904D01*
X149023809Y-125757142D01*
X148976190Y-125804761D01*
X148880952Y-125852380D01*
X148785714Y-125852380D01*
X148690476Y-125804761D01*
X148642857Y-125757142D01*
X148595238Y-125661904D01*
X148547619Y-125471428D01*
X148547619Y-125233333D01*
X148595238Y-125042857D01*
X148642857Y-124947619D01*
X148690476Y-124900000D01*
X148785714Y-124852380D01*
X149976190Y-125185714D02*
X149976190Y-125852380D01*
X149738095Y-124804761D02*
X149500000Y-125519047D01*
X150119047Y-125519047D01*
X150928571Y-125185714D02*
X150928571Y-125852380D01*
X150690476Y-124804761D02*
X150452380Y-125519047D01*
X151071428Y-125519047D01*
X151880952Y-125185714D02*
X151880952Y-125852380D01*
X151642857Y-124804761D02*
X151404761Y-125519047D01*
X152023809Y-125519047D01*
X152404761Y-125471428D02*
X153166666Y-125471428D01*
X154071428Y-125185714D02*
X154071428Y-125852380D01*
X153833333Y-124804761D02*
X153595238Y-125519047D01*
X154214285Y-125519047D01*
X155023809Y-124852380D02*
X154833333Y-124852380D01*
X154738095Y-124900000D01*
X154690476Y-124947619D01*
X154595238Y-125090476D01*
X154547619Y-125280952D01*
X154547619Y-125661904D01*
X154595238Y-125757142D01*
X154642857Y-125804761D01*
X154738095Y-125852380D01*
X154928571Y-125852380D01*
X155023809Y-125804761D01*
X155071428Y-125757142D01*
X155119047Y-125661904D01*
X155119047Y-125423809D01*
X155071428Y-125328571D01*
X155023809Y-125280952D01*
X154928571Y-125233333D01*
X154738095Y-125233333D01*
X154642857Y-125280952D01*
X154595238Y-125328571D01*
X154547619Y-125423809D01*
X155452380Y-124852380D02*
X156119047Y-124852380D01*
X155690476Y-125852380D01*
D11*
X137400000Y-75142857D02*
X137400000Y-73942857D01*
X137685714Y-73942857D01*
X137857142Y-74000000D01*
X137971428Y-74114285D01*
X138028571Y-74228571D01*
X138085714Y-74457142D01*
X138085714Y-74628571D01*
X138028571Y-74857142D01*
X137971428Y-74971428D01*
X137857142Y-75085714D01*
X137685714Y-75142857D01*
X137400000Y-75142857D01*
X139057142Y-75085714D02*
X138942857Y-75142857D01*
X138714285Y-75142857D01*
X138600000Y-75085714D01*
X138542857Y-74971428D01*
X138542857Y-74514285D01*
X138600000Y-74400000D01*
X138714285Y-74342857D01*
X138942857Y-74342857D01*
X139057142Y-74400000D01*
X139114285Y-74514285D01*
X139114285Y-74628571D01*
X138542857Y-74742857D01*
X139571428Y-75085714D02*
X139685714Y-75142857D01*
X139914285Y-75142857D01*
X140028571Y-75085714D01*
X140085714Y-74971428D01*
X140085714Y-74914285D01*
X140028571Y-74800000D01*
X139914285Y-74742857D01*
X139742857Y-74742857D01*
X139628571Y-74685714D01*
X139571428Y-74571428D01*
X139571428Y-74514285D01*
X139628571Y-74400000D01*
X139742857Y-74342857D01*
X139914285Y-74342857D01*
X140028571Y-74400000D01*
X140600000Y-75142857D02*
X140600000Y-74342857D01*
X140600000Y-73942857D02*
X140542857Y-74000000D01*
X140600000Y-74057142D01*
X140657142Y-74000000D01*
X140600000Y-73942857D01*
X140600000Y-74057142D01*
X141685714Y-74342857D02*
X141685714Y-75314285D01*
X141628571Y-75428571D01*
X141571428Y-75485714D01*
X141457142Y-75542857D01*
X141285714Y-75542857D01*
X141171428Y-75485714D01*
X141685714Y-75085714D02*
X141571428Y-75142857D01*
X141342857Y-75142857D01*
X141228571Y-75085714D01*
X141171428Y-75028571D01*
X141114285Y-74914285D01*
X141114285Y-74571428D01*
X141171428Y-74457142D01*
X141228571Y-74400000D01*
X141342857Y-74342857D01*
X141571428Y-74342857D01*
X141685714Y-74400000D01*
X142257142Y-74342857D02*
X142257142Y-75142857D01*
X142257142Y-74457142D02*
X142314285Y-74400000D01*
X142428571Y-74342857D01*
X142600000Y-74342857D01*
X142714285Y-74400000D01*
X142771428Y-74514285D01*
X142771428Y-75142857D01*
X143800000Y-75085714D02*
X143685714Y-75142857D01*
X143457142Y-75142857D01*
X143342857Y-75085714D01*
X143285714Y-74971428D01*
X143285714Y-74514285D01*
X143342857Y-74400000D01*
X143457142Y-74342857D01*
X143685714Y-74342857D01*
X143800000Y-74400000D01*
X143857142Y-74514285D01*
X143857142Y-74628571D01*
X143285714Y-74742857D01*
X144885714Y-75142857D02*
X144885714Y-73942857D01*
X144885714Y-75085714D02*
X144771428Y-75142857D01*
X144542857Y-75142857D01*
X144428571Y-75085714D01*
X144371428Y-75028571D01*
X144314285Y-74914285D01*
X144314285Y-74571428D01*
X144371428Y-74457142D01*
X144428571Y-74400000D01*
X144542857Y-74342857D01*
X144771428Y-74342857D01*
X144885714Y-74400000D01*
X146371428Y-75142857D02*
X146371428Y-73942857D01*
X146371428Y-74400000D02*
X146485714Y-74342857D01*
X146714285Y-74342857D01*
X146828571Y-74400000D01*
X146885714Y-74457142D01*
X146942857Y-74571428D01*
X146942857Y-74914285D01*
X146885714Y-75028571D01*
X146828571Y-75085714D01*
X146714285Y-75142857D01*
X146485714Y-75142857D01*
X146371428Y-75085714D01*
X147342857Y-74342857D02*
X147628571Y-75142857D01*
X147914285Y-74342857D02*
X147628571Y-75142857D01*
X147514285Y-75428571D01*
X147457142Y-75485714D01*
X147342857Y-75542857D01*
X149285714Y-75142857D02*
X149285714Y-73942857D01*
X149971428Y-75142857D02*
X149457142Y-74457142D01*
X149971428Y-73942857D02*
X149285714Y-74628571D01*
X150657142Y-75142857D02*
X150542857Y-75085714D01*
X150485714Y-75028571D01*
X150428571Y-74914285D01*
X150428571Y-74571428D01*
X150485714Y-74457142D01*
X150542857Y-74400000D01*
X150657142Y-74342857D01*
X150828571Y-74342857D01*
X150942857Y-74400000D01*
X151000000Y-74457142D01*
X151057142Y-74571428D01*
X151057142Y-74914285D01*
X151000000Y-75028571D01*
X150942857Y-75085714D01*
X150828571Y-75142857D01*
X150657142Y-75142857D01*
X152257142Y-75142857D02*
X151857142Y-74571428D01*
X151571428Y-75142857D02*
X151571428Y-73942857D01*
X152028571Y-73942857D01*
X152142857Y-74000000D01*
X152200000Y-74057142D01*
X152257142Y-74171428D01*
X152257142Y-74342857D01*
X152200000Y-74457142D01*
X152142857Y-74514285D01*
X152028571Y-74571428D01*
X151571428Y-74571428D01*
X152942857Y-75142857D02*
X152828571Y-75085714D01*
X152771428Y-75028571D01*
X152714285Y-74914285D01*
X152714285Y-74571428D01*
X152771428Y-74457142D01*
X152828571Y-74400000D01*
X152942857Y-74342857D01*
X153114285Y-74342857D01*
X153228571Y-74400000D01*
X153285714Y-74457142D01*
X153342857Y-74571428D01*
X153342857Y-74914285D01*
X153285714Y-75028571D01*
X153228571Y-75085714D01*
X153114285Y-75142857D01*
X152942857Y-75142857D01*
X153857142Y-75142857D02*
X153857142Y-73942857D01*
X154542857Y-75142857D01*
X154542857Y-73942857D01*
X155971428Y-73885714D02*
X154942857Y-75428571D01*
X156371428Y-75142857D02*
X156371428Y-73942857D01*
X157057142Y-75142857D02*
X156542857Y-74457142D01*
X157057142Y-73942857D02*
X156371428Y-74628571D01*
X158085714Y-75142857D02*
X158085714Y-74514285D01*
X158028571Y-74400000D01*
X157914285Y-74342857D01*
X157685714Y-74342857D01*
X157571428Y-74400000D01*
X158085714Y-75085714D02*
X157971428Y-75142857D01*
X157685714Y-75142857D01*
X157571428Y-75085714D01*
X157514285Y-74971428D01*
X157514285Y-74857142D01*
X157571428Y-74742857D01*
X157685714Y-74685714D01*
X157971428Y-74685714D01*
X158085714Y-74628571D01*
X158828571Y-75142857D02*
X158714285Y-75085714D01*
X158657142Y-75028571D01*
X158600000Y-74914285D01*
X158600000Y-74571428D01*
X158657142Y-74457142D01*
X158714285Y-74400000D01*
X158828571Y-74342857D01*
X159000000Y-74342857D01*
X159114285Y-74400000D01*
X159171428Y-74457142D01*
X159228571Y-74571428D01*
X159228571Y-74914285D01*
X159171428Y-75028571D01*
X159114285Y-75085714D01*
X159000000Y-75142857D01*
X158828571Y-75142857D01*
X159742857Y-75142857D02*
X159742857Y-74342857D01*
X159742857Y-74571428D02*
X159800000Y-74457142D01*
X159857142Y-74400000D01*
X159971428Y-74342857D01*
X160085714Y-74342857D01*
X160485714Y-75142857D02*
X160485714Y-74342857D01*
X160485714Y-73942857D02*
X160428571Y-74000000D01*
X160485714Y-74057142D01*
X160542857Y-74000000D01*
X160485714Y-73942857D01*
X160485714Y-74057142D01*
X161285714Y-74571428D02*
X161285714Y-75142857D01*
X160885714Y-73942857D02*
X161285714Y-74571428D01*
X161685714Y-73942857D01*
X162600000Y-75142857D02*
X162600000Y-74514285D01*
X162542857Y-74400000D01*
X162428571Y-74342857D01*
X162200000Y-74342857D01*
X162085714Y-74400000D01*
X162600000Y-75085714D02*
X162485714Y-75142857D01*
X162200000Y-75142857D01*
X162085714Y-75085714D01*
X162028571Y-74971428D01*
X162028571Y-74857142D01*
X162085714Y-74742857D01*
X162200000Y-74685714D01*
X162485714Y-74685714D01*
X162600000Y-74628571D01*
D12*
%TO.C,J3*%
X170320000Y-73330000D02*
G75*
G03*
X170320000Y-73330000I-1270000J0D01*
G01*
X170320000Y-75870000D02*
G75*
G03*
X170320000Y-75870000I-1270000J0D01*
G01*
X170320000Y-78410000D02*
G75*
G03*
X170320000Y-78410000I-1270000J0D01*
G01*
X170320000Y-80950000D02*
G75*
G03*
X170320000Y-80950000I-1270000J0D01*
G01*
X170320000Y-83490000D02*
G75*
G03*
X170320000Y-83490000I-1270000J0D01*
G01*
X170320000Y-86030000D02*
G75*
G03*
X170320000Y-86030000I-1270000J0D01*
G01*
X170320000Y-88570000D02*
G75*
G03*
X170320000Y-88570000I-1270000J0D01*
G01*
X170320000Y-91110000D02*
G75*
G03*
X170320000Y-91110000I-1270000J0D01*
G01*
X170320000Y-93650000D02*
G75*
G03*
X170320000Y-93650000I-1270000J0D01*
G01*
X170320000Y-96190000D02*
G75*
G03*
X170320000Y-96190000I-1270000J0D01*
G01*
X170320000Y-98730000D02*
G75*
G03*
X170320000Y-98730000I-1270000J0D01*
G01*
X170320000Y-101270000D02*
G75*
G03*
X170320000Y-101270000I-1270000J0D01*
G01*
X170320000Y-103810000D02*
G75*
G03*
X170320000Y-103810000I-1270000J0D01*
G01*
X170320000Y-106350000D02*
G75*
G03*
X170320000Y-106350000I-1270000J0D01*
G01*
X170320000Y-108890000D02*
G75*
G03*
X170320000Y-108890000I-1270000J0D01*
G01*
X170320000Y-111430000D02*
G75*
G03*
X170320000Y-111430000I-1270000J0D01*
G01*
X170320000Y-113970000D02*
G75*
G03*
X170320000Y-113970000I-1270000J0D01*
G01*
X170320000Y-116510000D02*
G75*
G03*
X170320000Y-116510000I-1270000J0D01*
G01*
X170320000Y-119050000D02*
G75*
G03*
X170320000Y-119050000I-1270000J0D01*
G01*
X170320000Y-121590000D02*
G75*
G03*
X170320000Y-121590000I-1270000J0D01*
G01*
X170320000Y-124130000D02*
G75*
G03*
X170320000Y-124130000I-1270000J0D01*
G01*
X170320000Y-126670000D02*
G75*
G03*
X170320000Y-126670000I-1270000J0D01*
G01*
%TO.C,J2*%
X132220000Y-126670000D02*
G75*
G03*
X132220000Y-126670000I-1270000J0D01*
G01*
X132220000Y-124130000D02*
G75*
G03*
X132220000Y-124130000I-1270000J0D01*
G01*
X132220000Y-121590000D02*
G75*
G03*
X132220000Y-121590000I-1270000J0D01*
G01*
X132220000Y-119050000D02*
G75*
G03*
X132220000Y-119050000I-1270000J0D01*
G01*
X132220000Y-116510000D02*
G75*
G03*
X132220000Y-116510000I-1270000J0D01*
G01*
X132220000Y-113970000D02*
G75*
G03*
X132220000Y-113970000I-1270000J0D01*
G01*
X132220000Y-111430000D02*
G75*
G03*
X132220000Y-111430000I-1270000J0D01*
G01*
X132220000Y-108890000D02*
G75*
G03*
X132220000Y-108890000I-1270000J0D01*
G01*
X132220000Y-106350000D02*
G75*
G03*
X132220000Y-106350000I-1270000J0D01*
G01*
X132220000Y-103810000D02*
G75*
G03*
X132220000Y-103810000I-1270000J0D01*
G01*
X132220000Y-101270000D02*
G75*
G03*
X132220000Y-101270000I-1270000J0D01*
G01*
X132220000Y-98730000D02*
G75*
G03*
X132220000Y-98730000I-1270000J0D01*
G01*
X132220000Y-96190000D02*
G75*
G03*
X132220000Y-96190000I-1270000J0D01*
G01*
X132220000Y-93650000D02*
G75*
G03*
X132220000Y-93650000I-1270000J0D01*
G01*
X132220000Y-91110000D02*
G75*
G03*
X132220000Y-91110000I-1270000J0D01*
G01*
X132220000Y-88570000D02*
G75*
G03*
X132220000Y-88570000I-1270000J0D01*
G01*
X132220000Y-86030000D02*
G75*
G03*
X132220000Y-86030000I-1270000J0D01*
G01*
X132220000Y-83490000D02*
G75*
G03*
X132220000Y-83490000I-1270000J0D01*
G01*
X132220000Y-80950000D02*
G75*
G03*
X132220000Y-80950000I-1270000J0D01*
G01*
X132220000Y-78410000D02*
G75*
G03*
X132220000Y-78410000I-1270000J0D01*
G01*
X132220000Y-75870000D02*
G75*
G03*
X132220000Y-75870000I-1270000J0D01*
G01*
X132220000Y-73330000D02*
G75*
G03*
X132220000Y-73330000I-1270000J0D01*
G01*
%TO.C,J1*%
D10*
X156140476Y-104952380D02*
X156759523Y-104952380D01*
X156426190Y-105333333D01*
X156569047Y-105333333D01*
X156664285Y-105380952D01*
X156711904Y-105428571D01*
X156759523Y-105523809D01*
X156759523Y-105761904D01*
X156711904Y-105857142D01*
X156664285Y-105904761D01*
X156569047Y-105952380D01*
X156283333Y-105952380D01*
X156188095Y-105904761D01*
X156140476Y-105857142D01*
X157616666Y-105285714D02*
X157616666Y-105952380D01*
X157378571Y-104904761D02*
X157140476Y-105619047D01*
X157759523Y-105619047D01*
X143238095Y-106497619D02*
X143285714Y-106450000D01*
X143380952Y-106402380D01*
X143619047Y-106402380D01*
X143714285Y-106450000D01*
X143761904Y-106497619D01*
X143809523Y-106592857D01*
X143809523Y-106688095D01*
X143761904Y-106830952D01*
X143190476Y-107402380D01*
X143809523Y-107402380D01*
X144142857Y-106402380D02*
X144761904Y-106402380D01*
X144428571Y-106783333D01*
X144571428Y-106783333D01*
X144666666Y-106830952D01*
X144714285Y-106878571D01*
X144761904Y-106973809D01*
X144761904Y-107211904D01*
X144714285Y-107307142D01*
X144666666Y-107354761D01*
X144571428Y-107402380D01*
X144285714Y-107402380D01*
X144190476Y-107354761D01*
X144142857Y-107307142D01*
X142859523Y-94952380D02*
X142288095Y-94952380D01*
X142573809Y-94952380D02*
X142573809Y-93952380D01*
X142478571Y-94095238D01*
X142383333Y-94190476D01*
X142288095Y-94238095D01*
X143240476Y-94047619D02*
X143288095Y-94000000D01*
X143383333Y-93952380D01*
X143621428Y-93952380D01*
X143716666Y-94000000D01*
X143764285Y-94047619D01*
X143811904Y-94142857D01*
X143811904Y-94238095D01*
X143764285Y-94380952D01*
X143192857Y-94952380D01*
X143811904Y-94952380D01*
X155785714Y-93502380D02*
X155214285Y-93502380D01*
X155500000Y-93502380D02*
X155500000Y-92502380D01*
X155404761Y-92645238D01*
X155309523Y-92740476D01*
X155214285Y-92788095D01*
%TO.C,J3*%
X165748095Y-126217619D02*
X165795714Y-126170000D01*
X165890952Y-126122380D01*
X166129047Y-126122380D01*
X166224285Y-126170000D01*
X166271904Y-126217619D01*
X166319523Y-126312857D01*
X166319523Y-126408095D01*
X166271904Y-126550952D01*
X165700476Y-127122380D01*
X166319523Y-127122380D01*
X166652857Y-126122380D02*
X167271904Y-126122380D01*
X166938571Y-126503333D01*
X167081428Y-126503333D01*
X167176666Y-126550952D01*
X167224285Y-126598571D01*
X167271904Y-126693809D01*
X167271904Y-126931904D01*
X167224285Y-127027142D01*
X167176666Y-127074761D01*
X167081428Y-127122380D01*
X166795714Y-127122380D01*
X166700476Y-127074761D01*
X166652857Y-127027142D01*
X165748095Y-123677619D02*
X165795714Y-123630000D01*
X165890952Y-123582380D01*
X166129047Y-123582380D01*
X166224285Y-123630000D01*
X166271904Y-123677619D01*
X166319523Y-123772857D01*
X166319523Y-123868095D01*
X166271904Y-124010952D01*
X165700476Y-124582380D01*
X166319523Y-124582380D01*
X167176666Y-123915714D02*
X167176666Y-124582380D01*
X166938571Y-123534761D02*
X166700476Y-124249047D01*
X167319523Y-124249047D01*
X165748095Y-121137619D02*
X165795714Y-121090000D01*
X165890952Y-121042380D01*
X166129047Y-121042380D01*
X166224285Y-121090000D01*
X166271904Y-121137619D01*
X166319523Y-121232857D01*
X166319523Y-121328095D01*
X166271904Y-121470952D01*
X165700476Y-122042380D01*
X166319523Y-122042380D01*
X167224285Y-121042380D02*
X166748095Y-121042380D01*
X166700476Y-121518571D01*
X166748095Y-121470952D01*
X166843333Y-121423333D01*
X167081428Y-121423333D01*
X167176666Y-121470952D01*
X167224285Y-121518571D01*
X167271904Y-121613809D01*
X167271904Y-121851904D01*
X167224285Y-121947142D01*
X167176666Y-121994761D01*
X167081428Y-122042380D01*
X166843333Y-122042380D01*
X166748095Y-121994761D01*
X166700476Y-121947142D01*
X165748095Y-118597619D02*
X165795714Y-118550000D01*
X165890952Y-118502380D01*
X166129047Y-118502380D01*
X166224285Y-118550000D01*
X166271904Y-118597619D01*
X166319523Y-118692857D01*
X166319523Y-118788095D01*
X166271904Y-118930952D01*
X165700476Y-119502380D01*
X166319523Y-119502380D01*
X167176666Y-118502380D02*
X166986190Y-118502380D01*
X166890952Y-118550000D01*
X166843333Y-118597619D01*
X166748095Y-118740476D01*
X166700476Y-118930952D01*
X166700476Y-119311904D01*
X166748095Y-119407142D01*
X166795714Y-119454761D01*
X166890952Y-119502380D01*
X167081428Y-119502380D01*
X167176666Y-119454761D01*
X167224285Y-119407142D01*
X167271904Y-119311904D01*
X167271904Y-119073809D01*
X167224285Y-118978571D01*
X167176666Y-118930952D01*
X167081428Y-118883333D01*
X166890952Y-118883333D01*
X166795714Y-118930952D01*
X166748095Y-118978571D01*
X166700476Y-119073809D01*
X165748095Y-116057619D02*
X165795714Y-116010000D01*
X165890952Y-115962380D01*
X166129047Y-115962380D01*
X166224285Y-116010000D01*
X166271904Y-116057619D01*
X166319523Y-116152857D01*
X166319523Y-116248095D01*
X166271904Y-116390952D01*
X165700476Y-116962380D01*
X166319523Y-116962380D01*
X166652857Y-115962380D02*
X167319523Y-115962380D01*
X166890952Y-116962380D01*
X165748095Y-113517619D02*
X165795714Y-113470000D01*
X165890952Y-113422380D01*
X166129047Y-113422380D01*
X166224285Y-113470000D01*
X166271904Y-113517619D01*
X166319523Y-113612857D01*
X166319523Y-113708095D01*
X166271904Y-113850952D01*
X165700476Y-114422380D01*
X166319523Y-114422380D01*
X166890952Y-113850952D02*
X166795714Y-113803333D01*
X166748095Y-113755714D01*
X166700476Y-113660476D01*
X166700476Y-113612857D01*
X166748095Y-113517619D01*
X166795714Y-113470000D01*
X166890952Y-113422380D01*
X167081428Y-113422380D01*
X167176666Y-113470000D01*
X167224285Y-113517619D01*
X167271904Y-113612857D01*
X167271904Y-113660476D01*
X167224285Y-113755714D01*
X167176666Y-113803333D01*
X167081428Y-113850952D01*
X166890952Y-113850952D01*
X166795714Y-113898571D01*
X166748095Y-113946190D01*
X166700476Y-114041428D01*
X166700476Y-114231904D01*
X166748095Y-114327142D01*
X166795714Y-114374761D01*
X166890952Y-114422380D01*
X167081428Y-114422380D01*
X167176666Y-114374761D01*
X167224285Y-114327142D01*
X167271904Y-114231904D01*
X167271904Y-114041428D01*
X167224285Y-113946190D01*
X167176666Y-113898571D01*
X167081428Y-113850952D01*
X165748095Y-110977619D02*
X165795714Y-110930000D01*
X165890952Y-110882380D01*
X166129047Y-110882380D01*
X166224285Y-110930000D01*
X166271904Y-110977619D01*
X166319523Y-111072857D01*
X166319523Y-111168095D01*
X166271904Y-111310952D01*
X165700476Y-111882380D01*
X166319523Y-111882380D01*
X166795714Y-111882380D02*
X166986190Y-111882380D01*
X167081428Y-111834761D01*
X167129047Y-111787142D01*
X167224285Y-111644285D01*
X167271904Y-111453809D01*
X167271904Y-111072857D01*
X167224285Y-110977619D01*
X167176666Y-110930000D01*
X167081428Y-110882380D01*
X166890952Y-110882380D01*
X166795714Y-110930000D01*
X166748095Y-110977619D01*
X166700476Y-111072857D01*
X166700476Y-111310952D01*
X166748095Y-111406190D01*
X166795714Y-111453809D01*
X166890952Y-111501428D01*
X167081428Y-111501428D01*
X167176666Y-111453809D01*
X167224285Y-111406190D01*
X167271904Y-111310952D01*
X165700476Y-108342380D02*
X166319523Y-108342380D01*
X165986190Y-108723333D01*
X166129047Y-108723333D01*
X166224285Y-108770952D01*
X166271904Y-108818571D01*
X166319523Y-108913809D01*
X166319523Y-109151904D01*
X166271904Y-109247142D01*
X166224285Y-109294761D01*
X166129047Y-109342380D01*
X165843333Y-109342380D01*
X165748095Y-109294761D01*
X165700476Y-109247142D01*
X166938571Y-108342380D02*
X167033809Y-108342380D01*
X167129047Y-108390000D01*
X167176666Y-108437619D01*
X167224285Y-108532857D01*
X167271904Y-108723333D01*
X167271904Y-108961428D01*
X167224285Y-109151904D01*
X167176666Y-109247142D01*
X167129047Y-109294761D01*
X167033809Y-109342380D01*
X166938571Y-109342380D01*
X166843333Y-109294761D01*
X166795714Y-109247142D01*
X166748095Y-109151904D01*
X166700476Y-108961428D01*
X166700476Y-108723333D01*
X166748095Y-108532857D01*
X166795714Y-108437619D01*
X166843333Y-108390000D01*
X166938571Y-108342380D01*
X165700476Y-105802380D02*
X166319523Y-105802380D01*
X165986190Y-106183333D01*
X166129047Y-106183333D01*
X166224285Y-106230952D01*
X166271904Y-106278571D01*
X166319523Y-106373809D01*
X166319523Y-106611904D01*
X166271904Y-106707142D01*
X166224285Y-106754761D01*
X166129047Y-106802380D01*
X165843333Y-106802380D01*
X165748095Y-106754761D01*
X165700476Y-106707142D01*
X167271904Y-106802380D02*
X166700476Y-106802380D01*
X166986190Y-106802380D02*
X166986190Y-105802380D01*
X166890952Y-105945238D01*
X166795714Y-106040476D01*
X166700476Y-106088095D01*
X165700476Y-103262380D02*
X166319523Y-103262380D01*
X165986190Y-103643333D01*
X166129047Y-103643333D01*
X166224285Y-103690952D01*
X166271904Y-103738571D01*
X166319523Y-103833809D01*
X166319523Y-104071904D01*
X166271904Y-104167142D01*
X166224285Y-104214761D01*
X166129047Y-104262380D01*
X165843333Y-104262380D01*
X165748095Y-104214761D01*
X165700476Y-104167142D01*
X166700476Y-103357619D02*
X166748095Y-103310000D01*
X166843333Y-103262380D01*
X167081428Y-103262380D01*
X167176666Y-103310000D01*
X167224285Y-103357619D01*
X167271904Y-103452857D01*
X167271904Y-103548095D01*
X167224285Y-103690952D01*
X166652857Y-104262380D01*
X167271904Y-104262380D01*
X165700476Y-100722380D02*
X166319523Y-100722380D01*
X165986190Y-101103333D01*
X166129047Y-101103333D01*
X166224285Y-101150952D01*
X166271904Y-101198571D01*
X166319523Y-101293809D01*
X166319523Y-101531904D01*
X166271904Y-101627142D01*
X166224285Y-101674761D01*
X166129047Y-101722380D01*
X165843333Y-101722380D01*
X165748095Y-101674761D01*
X165700476Y-101627142D01*
X166652857Y-100722380D02*
X167271904Y-100722380D01*
X166938571Y-101103333D01*
X167081428Y-101103333D01*
X167176666Y-101150952D01*
X167224285Y-101198571D01*
X167271904Y-101293809D01*
X167271904Y-101531904D01*
X167224285Y-101627142D01*
X167176666Y-101674761D01*
X167081428Y-101722380D01*
X166795714Y-101722380D01*
X166700476Y-101674761D01*
X166652857Y-101627142D01*
X165700476Y-98182380D02*
X166319523Y-98182380D01*
X165986190Y-98563333D01*
X166129047Y-98563333D01*
X166224285Y-98610952D01*
X166271904Y-98658571D01*
X166319523Y-98753809D01*
X166319523Y-98991904D01*
X166271904Y-99087142D01*
X166224285Y-99134761D01*
X166129047Y-99182380D01*
X165843333Y-99182380D01*
X165748095Y-99134761D01*
X165700476Y-99087142D01*
X167176666Y-98515714D02*
X167176666Y-99182380D01*
X166938571Y-98134761D02*
X166700476Y-98849047D01*
X167319523Y-98849047D01*
X165700476Y-95642380D02*
X166319523Y-95642380D01*
X165986190Y-96023333D01*
X166129047Y-96023333D01*
X166224285Y-96070952D01*
X166271904Y-96118571D01*
X166319523Y-96213809D01*
X166319523Y-96451904D01*
X166271904Y-96547142D01*
X166224285Y-96594761D01*
X166129047Y-96642380D01*
X165843333Y-96642380D01*
X165748095Y-96594761D01*
X165700476Y-96547142D01*
X167224285Y-95642380D02*
X166748095Y-95642380D01*
X166700476Y-96118571D01*
X166748095Y-96070952D01*
X166843333Y-96023333D01*
X167081428Y-96023333D01*
X167176666Y-96070952D01*
X167224285Y-96118571D01*
X167271904Y-96213809D01*
X167271904Y-96451904D01*
X167224285Y-96547142D01*
X167176666Y-96594761D01*
X167081428Y-96642380D01*
X166843333Y-96642380D01*
X166748095Y-96594761D01*
X166700476Y-96547142D01*
X165700476Y-93102380D02*
X166319523Y-93102380D01*
X165986190Y-93483333D01*
X166129047Y-93483333D01*
X166224285Y-93530952D01*
X166271904Y-93578571D01*
X166319523Y-93673809D01*
X166319523Y-93911904D01*
X166271904Y-94007142D01*
X166224285Y-94054761D01*
X166129047Y-94102380D01*
X165843333Y-94102380D01*
X165748095Y-94054761D01*
X165700476Y-94007142D01*
X167176666Y-93102380D02*
X166986190Y-93102380D01*
X166890952Y-93150000D01*
X166843333Y-93197619D01*
X166748095Y-93340476D01*
X166700476Y-93530952D01*
X166700476Y-93911904D01*
X166748095Y-94007142D01*
X166795714Y-94054761D01*
X166890952Y-94102380D01*
X167081428Y-94102380D01*
X167176666Y-94054761D01*
X167224285Y-94007142D01*
X167271904Y-93911904D01*
X167271904Y-93673809D01*
X167224285Y-93578571D01*
X167176666Y-93530952D01*
X167081428Y-93483333D01*
X166890952Y-93483333D01*
X166795714Y-93530952D01*
X166748095Y-93578571D01*
X166700476Y-93673809D01*
X165700476Y-90562380D02*
X166319523Y-90562380D01*
X165986190Y-90943333D01*
X166129047Y-90943333D01*
X166224285Y-90990952D01*
X166271904Y-91038571D01*
X166319523Y-91133809D01*
X166319523Y-91371904D01*
X166271904Y-91467142D01*
X166224285Y-91514761D01*
X166129047Y-91562380D01*
X165843333Y-91562380D01*
X165748095Y-91514761D01*
X165700476Y-91467142D01*
X166652857Y-90562380D02*
X167319523Y-90562380D01*
X166890952Y-91562380D01*
X165700476Y-88022380D02*
X166319523Y-88022380D01*
X165986190Y-88403333D01*
X166129047Y-88403333D01*
X166224285Y-88450952D01*
X166271904Y-88498571D01*
X166319523Y-88593809D01*
X166319523Y-88831904D01*
X166271904Y-88927142D01*
X166224285Y-88974761D01*
X166129047Y-89022380D01*
X165843333Y-89022380D01*
X165748095Y-88974761D01*
X165700476Y-88927142D01*
X166890952Y-88450952D02*
X166795714Y-88403333D01*
X166748095Y-88355714D01*
X166700476Y-88260476D01*
X166700476Y-88212857D01*
X166748095Y-88117619D01*
X166795714Y-88070000D01*
X166890952Y-88022380D01*
X167081428Y-88022380D01*
X167176666Y-88070000D01*
X167224285Y-88117619D01*
X167271904Y-88212857D01*
X167271904Y-88260476D01*
X167224285Y-88355714D01*
X167176666Y-88403333D01*
X167081428Y-88450952D01*
X166890952Y-88450952D01*
X166795714Y-88498571D01*
X166748095Y-88546190D01*
X166700476Y-88641428D01*
X166700476Y-88831904D01*
X166748095Y-88927142D01*
X166795714Y-88974761D01*
X166890952Y-89022380D01*
X167081428Y-89022380D01*
X167176666Y-88974761D01*
X167224285Y-88927142D01*
X167271904Y-88831904D01*
X167271904Y-88641428D01*
X167224285Y-88546190D01*
X167176666Y-88498571D01*
X167081428Y-88450952D01*
X165700476Y-85482380D02*
X166319523Y-85482380D01*
X165986190Y-85863333D01*
X166129047Y-85863333D01*
X166224285Y-85910952D01*
X166271904Y-85958571D01*
X166319523Y-86053809D01*
X166319523Y-86291904D01*
X166271904Y-86387142D01*
X166224285Y-86434761D01*
X166129047Y-86482380D01*
X165843333Y-86482380D01*
X165748095Y-86434761D01*
X165700476Y-86387142D01*
X166795714Y-86482380D02*
X166986190Y-86482380D01*
X167081428Y-86434761D01*
X167129047Y-86387142D01*
X167224285Y-86244285D01*
X167271904Y-86053809D01*
X167271904Y-85672857D01*
X167224285Y-85577619D01*
X167176666Y-85530000D01*
X167081428Y-85482380D01*
X166890952Y-85482380D01*
X166795714Y-85530000D01*
X166748095Y-85577619D01*
X166700476Y-85672857D01*
X166700476Y-85910952D01*
X166748095Y-86006190D01*
X166795714Y-86053809D01*
X166890952Y-86101428D01*
X167081428Y-86101428D01*
X167176666Y-86053809D01*
X167224285Y-86006190D01*
X167271904Y-85910952D01*
X166224285Y-83275714D02*
X166224285Y-83942380D01*
X165986190Y-82894761D02*
X165748095Y-83609047D01*
X166367142Y-83609047D01*
X166938571Y-82942380D02*
X167033809Y-82942380D01*
X167129047Y-82990000D01*
X167176666Y-83037619D01*
X167224285Y-83132857D01*
X167271904Y-83323333D01*
X167271904Y-83561428D01*
X167224285Y-83751904D01*
X167176666Y-83847142D01*
X167129047Y-83894761D01*
X167033809Y-83942380D01*
X166938571Y-83942380D01*
X166843333Y-83894761D01*
X166795714Y-83847142D01*
X166748095Y-83751904D01*
X166700476Y-83561428D01*
X166700476Y-83323333D01*
X166748095Y-83132857D01*
X166795714Y-83037619D01*
X166843333Y-82990000D01*
X166938571Y-82942380D01*
X166224285Y-80735714D02*
X166224285Y-81402380D01*
X165986190Y-80354761D02*
X165748095Y-81069047D01*
X166367142Y-81069047D01*
X167271904Y-81402380D02*
X166700476Y-81402380D01*
X166986190Y-81402380D02*
X166986190Y-80402380D01*
X166890952Y-80545238D01*
X166795714Y-80640476D01*
X166700476Y-80688095D01*
X166224285Y-78195714D02*
X166224285Y-78862380D01*
X165986190Y-77814761D02*
X165748095Y-78529047D01*
X166367142Y-78529047D01*
X166700476Y-77957619D02*
X166748095Y-77910000D01*
X166843333Y-77862380D01*
X167081428Y-77862380D01*
X167176666Y-77910000D01*
X167224285Y-77957619D01*
X167271904Y-78052857D01*
X167271904Y-78148095D01*
X167224285Y-78290952D01*
X166652857Y-78862380D01*
X167271904Y-78862380D01*
X166224285Y-75655714D02*
X166224285Y-76322380D01*
X165986190Y-75274761D02*
X165748095Y-75989047D01*
X166367142Y-75989047D01*
X166652857Y-75322380D02*
X167271904Y-75322380D01*
X166938571Y-75703333D01*
X167081428Y-75703333D01*
X167176666Y-75750952D01*
X167224285Y-75798571D01*
X167271904Y-75893809D01*
X167271904Y-76131904D01*
X167224285Y-76227142D01*
X167176666Y-76274761D01*
X167081428Y-76322380D01*
X166795714Y-76322380D01*
X166700476Y-76274761D01*
X166652857Y-76227142D01*
X166224285Y-73115714D02*
X166224285Y-73782380D01*
X165986190Y-72734761D02*
X165748095Y-73449047D01*
X166367142Y-73449047D01*
X167176666Y-73115714D02*
X167176666Y-73782380D01*
X166938571Y-72734761D02*
X166700476Y-73449047D01*
X167319523Y-73449047D01*
%TO.C,J2*%
X132728095Y-121137619D02*
X132775714Y-121090000D01*
X132870952Y-121042380D01*
X133109047Y-121042380D01*
X133204285Y-121090000D01*
X133251904Y-121137619D01*
X133299523Y-121232857D01*
X133299523Y-121328095D01*
X133251904Y-121470952D01*
X132680476Y-122042380D01*
X133299523Y-122042380D01*
X133918571Y-121042380D02*
X134013809Y-121042380D01*
X134109047Y-121090000D01*
X134156666Y-121137619D01*
X134204285Y-121232857D01*
X134251904Y-121423333D01*
X134251904Y-121661428D01*
X134204285Y-121851904D01*
X134156666Y-121947142D01*
X134109047Y-121994761D01*
X134013809Y-122042380D01*
X133918571Y-122042380D01*
X133823333Y-121994761D01*
X133775714Y-121947142D01*
X133728095Y-121851904D01*
X133680476Y-121661428D01*
X133680476Y-121423333D01*
X133728095Y-121232857D01*
X133775714Y-121137619D01*
X133823333Y-121090000D01*
X133918571Y-121042380D01*
X132728095Y-126217619D02*
X132775714Y-126170000D01*
X132870952Y-126122380D01*
X133109047Y-126122380D01*
X133204285Y-126170000D01*
X133251904Y-126217619D01*
X133299523Y-126312857D01*
X133299523Y-126408095D01*
X133251904Y-126550952D01*
X132680476Y-127122380D01*
X133299523Y-127122380D01*
X133680476Y-126217619D02*
X133728095Y-126170000D01*
X133823333Y-126122380D01*
X134061428Y-126122380D01*
X134156666Y-126170000D01*
X134204285Y-126217619D01*
X134251904Y-126312857D01*
X134251904Y-126408095D01*
X134204285Y-126550952D01*
X133632857Y-127122380D01*
X134251904Y-127122380D01*
X132728095Y-123677619D02*
X132775714Y-123630000D01*
X132870952Y-123582380D01*
X133109047Y-123582380D01*
X133204285Y-123630000D01*
X133251904Y-123677619D01*
X133299523Y-123772857D01*
X133299523Y-123868095D01*
X133251904Y-124010952D01*
X132680476Y-124582380D01*
X133299523Y-124582380D01*
X134251904Y-124582380D02*
X133680476Y-124582380D01*
X133966190Y-124582380D02*
X133966190Y-123582380D01*
X133870952Y-123725238D01*
X133775714Y-123820476D01*
X133680476Y-123868095D01*
X133299523Y-119502380D02*
X132728095Y-119502380D01*
X133013809Y-119502380D02*
X133013809Y-118502380D01*
X132918571Y-118645238D01*
X132823333Y-118740476D01*
X132728095Y-118788095D01*
X133775714Y-119502380D02*
X133966190Y-119502380D01*
X134061428Y-119454761D01*
X134109047Y-119407142D01*
X134204285Y-119264285D01*
X134251904Y-119073809D01*
X134251904Y-118692857D01*
X134204285Y-118597619D01*
X134156666Y-118550000D01*
X134061428Y-118502380D01*
X133870952Y-118502380D01*
X133775714Y-118550000D01*
X133728095Y-118597619D01*
X133680476Y-118692857D01*
X133680476Y-118930952D01*
X133728095Y-119026190D01*
X133775714Y-119073809D01*
X133870952Y-119121428D01*
X134061428Y-119121428D01*
X134156666Y-119073809D01*
X134204285Y-119026190D01*
X134251904Y-118930952D01*
X133299523Y-116962380D02*
X132728095Y-116962380D01*
X133013809Y-116962380D02*
X133013809Y-115962380D01*
X132918571Y-116105238D01*
X132823333Y-116200476D01*
X132728095Y-116248095D01*
X133870952Y-116390952D02*
X133775714Y-116343333D01*
X133728095Y-116295714D01*
X133680476Y-116200476D01*
X133680476Y-116152857D01*
X133728095Y-116057619D01*
X133775714Y-116010000D01*
X133870952Y-115962380D01*
X134061428Y-115962380D01*
X134156666Y-116010000D01*
X134204285Y-116057619D01*
X134251904Y-116152857D01*
X134251904Y-116200476D01*
X134204285Y-116295714D01*
X134156666Y-116343333D01*
X134061428Y-116390952D01*
X133870952Y-116390952D01*
X133775714Y-116438571D01*
X133728095Y-116486190D01*
X133680476Y-116581428D01*
X133680476Y-116771904D01*
X133728095Y-116867142D01*
X133775714Y-116914761D01*
X133870952Y-116962380D01*
X134061428Y-116962380D01*
X134156666Y-116914761D01*
X134204285Y-116867142D01*
X134251904Y-116771904D01*
X134251904Y-116581428D01*
X134204285Y-116486190D01*
X134156666Y-116438571D01*
X134061428Y-116390952D01*
X133299523Y-114422380D02*
X132728095Y-114422380D01*
X133013809Y-114422380D02*
X133013809Y-113422380D01*
X132918571Y-113565238D01*
X132823333Y-113660476D01*
X132728095Y-113708095D01*
X133632857Y-113422380D02*
X134299523Y-113422380D01*
X133870952Y-114422380D01*
X133299523Y-111882380D02*
X132728095Y-111882380D01*
X133013809Y-111882380D02*
X133013809Y-110882380D01*
X132918571Y-111025238D01*
X132823333Y-111120476D01*
X132728095Y-111168095D01*
X134156666Y-110882380D02*
X133966190Y-110882380D01*
X133870952Y-110930000D01*
X133823333Y-110977619D01*
X133728095Y-111120476D01*
X133680476Y-111310952D01*
X133680476Y-111691904D01*
X133728095Y-111787142D01*
X133775714Y-111834761D01*
X133870952Y-111882380D01*
X134061428Y-111882380D01*
X134156666Y-111834761D01*
X134204285Y-111787142D01*
X134251904Y-111691904D01*
X134251904Y-111453809D01*
X134204285Y-111358571D01*
X134156666Y-111310952D01*
X134061428Y-111263333D01*
X133870952Y-111263333D01*
X133775714Y-111310952D01*
X133728095Y-111358571D01*
X133680476Y-111453809D01*
X133299523Y-109342380D02*
X132728095Y-109342380D01*
X133013809Y-109342380D02*
X133013809Y-108342380D01*
X132918571Y-108485238D01*
X132823333Y-108580476D01*
X132728095Y-108628095D01*
X134204285Y-108342380D02*
X133728095Y-108342380D01*
X133680476Y-108818571D01*
X133728095Y-108770952D01*
X133823333Y-108723333D01*
X134061428Y-108723333D01*
X134156666Y-108770952D01*
X134204285Y-108818571D01*
X134251904Y-108913809D01*
X134251904Y-109151904D01*
X134204285Y-109247142D01*
X134156666Y-109294761D01*
X134061428Y-109342380D01*
X133823333Y-109342380D01*
X133728095Y-109294761D01*
X133680476Y-109247142D01*
X133299523Y-106802380D02*
X132728095Y-106802380D01*
X133013809Y-106802380D02*
X133013809Y-105802380D01*
X132918571Y-105945238D01*
X132823333Y-106040476D01*
X132728095Y-106088095D01*
X134156666Y-106135714D02*
X134156666Y-106802380D01*
X133918571Y-105754761D02*
X133680476Y-106469047D01*
X134299523Y-106469047D01*
X133299523Y-104262380D02*
X132728095Y-104262380D01*
X133013809Y-104262380D02*
X133013809Y-103262380D01*
X132918571Y-103405238D01*
X132823333Y-103500476D01*
X132728095Y-103548095D01*
X133632857Y-103262380D02*
X134251904Y-103262380D01*
X133918571Y-103643333D01*
X134061428Y-103643333D01*
X134156666Y-103690952D01*
X134204285Y-103738571D01*
X134251904Y-103833809D01*
X134251904Y-104071904D01*
X134204285Y-104167142D01*
X134156666Y-104214761D01*
X134061428Y-104262380D01*
X133775714Y-104262380D01*
X133680476Y-104214761D01*
X133632857Y-104167142D01*
X133299523Y-101722380D02*
X132728095Y-101722380D01*
X133013809Y-101722380D02*
X133013809Y-100722380D01*
X132918571Y-100865238D01*
X132823333Y-100960476D01*
X132728095Y-101008095D01*
X133680476Y-100817619D02*
X133728095Y-100770000D01*
X133823333Y-100722380D01*
X134061428Y-100722380D01*
X134156666Y-100770000D01*
X134204285Y-100817619D01*
X134251904Y-100912857D01*
X134251904Y-101008095D01*
X134204285Y-101150952D01*
X133632857Y-101722380D01*
X134251904Y-101722380D01*
X133299523Y-99182380D02*
X132728095Y-99182380D01*
X133013809Y-99182380D02*
X133013809Y-98182380D01*
X132918571Y-98325238D01*
X132823333Y-98420476D01*
X132728095Y-98468095D01*
X134251904Y-99182380D02*
X133680476Y-99182380D01*
X133966190Y-99182380D02*
X133966190Y-98182380D01*
X133870952Y-98325238D01*
X133775714Y-98420476D01*
X133680476Y-98468095D01*
X133299523Y-96642380D02*
X132728095Y-96642380D01*
X133013809Y-96642380D02*
X133013809Y-95642380D01*
X132918571Y-95785238D01*
X132823333Y-95880476D01*
X132728095Y-95928095D01*
X133918571Y-95642380D02*
X134013809Y-95642380D01*
X134109047Y-95690000D01*
X134156666Y-95737619D01*
X134204285Y-95832857D01*
X134251904Y-96023333D01*
X134251904Y-96261428D01*
X134204285Y-96451904D01*
X134156666Y-96547142D01*
X134109047Y-96594761D01*
X134013809Y-96642380D01*
X133918571Y-96642380D01*
X133823333Y-96594761D01*
X133775714Y-96547142D01*
X133728095Y-96451904D01*
X133680476Y-96261428D01*
X133680476Y-96023333D01*
X133728095Y-95832857D01*
X133775714Y-95737619D01*
X133823333Y-95690000D01*
X133918571Y-95642380D01*
X132966190Y-93102380D02*
X133061428Y-93102380D01*
X133156666Y-93150000D01*
X133204285Y-93197619D01*
X133251904Y-93292857D01*
X133299523Y-93483333D01*
X133299523Y-93721428D01*
X133251904Y-93911904D01*
X133204285Y-94007142D01*
X133156666Y-94054761D01*
X133061428Y-94102380D01*
X132966190Y-94102380D01*
X132870952Y-94054761D01*
X132823333Y-94007142D01*
X132775714Y-93911904D01*
X132728095Y-93721428D01*
X132728095Y-93483333D01*
X132775714Y-93292857D01*
X132823333Y-93197619D01*
X132870952Y-93150000D01*
X132966190Y-93102380D01*
X133775714Y-94102380D02*
X133966190Y-94102380D01*
X134061428Y-94054761D01*
X134109047Y-94007142D01*
X134204285Y-93864285D01*
X134251904Y-93673809D01*
X134251904Y-93292857D01*
X134204285Y-93197619D01*
X134156666Y-93150000D01*
X134061428Y-93102380D01*
X133870952Y-93102380D01*
X133775714Y-93150000D01*
X133728095Y-93197619D01*
X133680476Y-93292857D01*
X133680476Y-93530952D01*
X133728095Y-93626190D01*
X133775714Y-93673809D01*
X133870952Y-93721428D01*
X134061428Y-93721428D01*
X134156666Y-93673809D01*
X134204285Y-93626190D01*
X134251904Y-93530952D01*
X132966190Y-90562380D02*
X133061428Y-90562380D01*
X133156666Y-90610000D01*
X133204285Y-90657619D01*
X133251904Y-90752857D01*
X133299523Y-90943333D01*
X133299523Y-91181428D01*
X133251904Y-91371904D01*
X133204285Y-91467142D01*
X133156666Y-91514761D01*
X133061428Y-91562380D01*
X132966190Y-91562380D01*
X132870952Y-91514761D01*
X132823333Y-91467142D01*
X132775714Y-91371904D01*
X132728095Y-91181428D01*
X132728095Y-90943333D01*
X132775714Y-90752857D01*
X132823333Y-90657619D01*
X132870952Y-90610000D01*
X132966190Y-90562380D01*
X133870952Y-90990952D02*
X133775714Y-90943333D01*
X133728095Y-90895714D01*
X133680476Y-90800476D01*
X133680476Y-90752857D01*
X133728095Y-90657619D01*
X133775714Y-90610000D01*
X133870952Y-90562380D01*
X134061428Y-90562380D01*
X134156666Y-90610000D01*
X134204285Y-90657619D01*
X134251904Y-90752857D01*
X134251904Y-90800476D01*
X134204285Y-90895714D01*
X134156666Y-90943333D01*
X134061428Y-90990952D01*
X133870952Y-90990952D01*
X133775714Y-91038571D01*
X133728095Y-91086190D01*
X133680476Y-91181428D01*
X133680476Y-91371904D01*
X133728095Y-91467142D01*
X133775714Y-91514761D01*
X133870952Y-91562380D01*
X134061428Y-91562380D01*
X134156666Y-91514761D01*
X134204285Y-91467142D01*
X134251904Y-91371904D01*
X134251904Y-91181428D01*
X134204285Y-91086190D01*
X134156666Y-91038571D01*
X134061428Y-90990952D01*
X132966190Y-88022380D02*
X133061428Y-88022380D01*
X133156666Y-88070000D01*
X133204285Y-88117619D01*
X133251904Y-88212857D01*
X133299523Y-88403333D01*
X133299523Y-88641428D01*
X133251904Y-88831904D01*
X133204285Y-88927142D01*
X133156666Y-88974761D01*
X133061428Y-89022380D01*
X132966190Y-89022380D01*
X132870952Y-88974761D01*
X132823333Y-88927142D01*
X132775714Y-88831904D01*
X132728095Y-88641428D01*
X132728095Y-88403333D01*
X132775714Y-88212857D01*
X132823333Y-88117619D01*
X132870952Y-88070000D01*
X132966190Y-88022380D01*
X133632857Y-88022380D02*
X134299523Y-88022380D01*
X133870952Y-89022380D01*
X132966190Y-85482380D02*
X133061428Y-85482380D01*
X133156666Y-85530000D01*
X133204285Y-85577619D01*
X133251904Y-85672857D01*
X133299523Y-85863333D01*
X133299523Y-86101428D01*
X133251904Y-86291904D01*
X133204285Y-86387142D01*
X133156666Y-86434761D01*
X133061428Y-86482380D01*
X132966190Y-86482380D01*
X132870952Y-86434761D01*
X132823333Y-86387142D01*
X132775714Y-86291904D01*
X132728095Y-86101428D01*
X132728095Y-85863333D01*
X132775714Y-85672857D01*
X132823333Y-85577619D01*
X132870952Y-85530000D01*
X132966190Y-85482380D01*
X134156666Y-85482380D02*
X133966190Y-85482380D01*
X133870952Y-85530000D01*
X133823333Y-85577619D01*
X133728095Y-85720476D01*
X133680476Y-85910952D01*
X133680476Y-86291904D01*
X133728095Y-86387142D01*
X133775714Y-86434761D01*
X133870952Y-86482380D01*
X134061428Y-86482380D01*
X134156666Y-86434761D01*
X134204285Y-86387142D01*
X134251904Y-86291904D01*
X134251904Y-86053809D01*
X134204285Y-85958571D01*
X134156666Y-85910952D01*
X134061428Y-85863333D01*
X133870952Y-85863333D01*
X133775714Y-85910952D01*
X133728095Y-85958571D01*
X133680476Y-86053809D01*
X132966190Y-82942380D02*
X133061428Y-82942380D01*
X133156666Y-82990000D01*
X133204285Y-83037619D01*
X133251904Y-83132857D01*
X133299523Y-83323333D01*
X133299523Y-83561428D01*
X133251904Y-83751904D01*
X133204285Y-83847142D01*
X133156666Y-83894761D01*
X133061428Y-83942380D01*
X132966190Y-83942380D01*
X132870952Y-83894761D01*
X132823333Y-83847142D01*
X132775714Y-83751904D01*
X132728095Y-83561428D01*
X132728095Y-83323333D01*
X132775714Y-83132857D01*
X132823333Y-83037619D01*
X132870952Y-82990000D01*
X132966190Y-82942380D01*
X134204285Y-82942380D02*
X133728095Y-82942380D01*
X133680476Y-83418571D01*
X133728095Y-83370952D01*
X133823333Y-83323333D01*
X134061428Y-83323333D01*
X134156666Y-83370952D01*
X134204285Y-83418571D01*
X134251904Y-83513809D01*
X134251904Y-83751904D01*
X134204285Y-83847142D01*
X134156666Y-83894761D01*
X134061428Y-83942380D01*
X133823333Y-83942380D01*
X133728095Y-83894761D01*
X133680476Y-83847142D01*
X132966190Y-80402380D02*
X133061428Y-80402380D01*
X133156666Y-80450000D01*
X133204285Y-80497619D01*
X133251904Y-80592857D01*
X133299523Y-80783333D01*
X133299523Y-81021428D01*
X133251904Y-81211904D01*
X133204285Y-81307142D01*
X133156666Y-81354761D01*
X133061428Y-81402380D01*
X132966190Y-81402380D01*
X132870952Y-81354761D01*
X132823333Y-81307142D01*
X132775714Y-81211904D01*
X132728095Y-81021428D01*
X132728095Y-80783333D01*
X132775714Y-80592857D01*
X132823333Y-80497619D01*
X132870952Y-80450000D01*
X132966190Y-80402380D01*
X134156666Y-80735714D02*
X134156666Y-81402380D01*
X133918571Y-80354761D02*
X133680476Y-81069047D01*
X134299523Y-81069047D01*
X132966190Y-77862380D02*
X133061428Y-77862380D01*
X133156666Y-77910000D01*
X133204285Y-77957619D01*
X133251904Y-78052857D01*
X133299523Y-78243333D01*
X133299523Y-78481428D01*
X133251904Y-78671904D01*
X133204285Y-78767142D01*
X133156666Y-78814761D01*
X133061428Y-78862380D01*
X132966190Y-78862380D01*
X132870952Y-78814761D01*
X132823333Y-78767142D01*
X132775714Y-78671904D01*
X132728095Y-78481428D01*
X132728095Y-78243333D01*
X132775714Y-78052857D01*
X132823333Y-77957619D01*
X132870952Y-77910000D01*
X132966190Y-77862380D01*
X133632857Y-77862380D02*
X134251904Y-77862380D01*
X133918571Y-78243333D01*
X134061428Y-78243333D01*
X134156666Y-78290952D01*
X134204285Y-78338571D01*
X134251904Y-78433809D01*
X134251904Y-78671904D01*
X134204285Y-78767142D01*
X134156666Y-78814761D01*
X134061428Y-78862380D01*
X133775714Y-78862380D01*
X133680476Y-78814761D01*
X133632857Y-78767142D01*
X132966190Y-75322380D02*
X133061428Y-75322380D01*
X133156666Y-75370000D01*
X133204285Y-75417619D01*
X133251904Y-75512857D01*
X133299523Y-75703333D01*
X133299523Y-75941428D01*
X133251904Y-76131904D01*
X133204285Y-76227142D01*
X133156666Y-76274761D01*
X133061428Y-76322380D01*
X132966190Y-76322380D01*
X132870952Y-76274761D01*
X132823333Y-76227142D01*
X132775714Y-76131904D01*
X132728095Y-75941428D01*
X132728095Y-75703333D01*
X132775714Y-75512857D01*
X132823333Y-75417619D01*
X132870952Y-75370000D01*
X132966190Y-75322380D01*
X133680476Y-75417619D02*
X133728095Y-75370000D01*
X133823333Y-75322380D01*
X134061428Y-75322380D01*
X134156666Y-75370000D01*
X134204285Y-75417619D01*
X134251904Y-75512857D01*
X134251904Y-75608095D01*
X134204285Y-75750952D01*
X133632857Y-76322380D01*
X134251904Y-76322380D01*
X132966190Y-72782380D02*
X133061428Y-72782380D01*
X133156666Y-72830000D01*
X133204285Y-72877619D01*
X133251904Y-72972857D01*
X133299523Y-73163333D01*
X133299523Y-73401428D01*
X133251904Y-73591904D01*
X133204285Y-73687142D01*
X133156666Y-73734761D01*
X133061428Y-73782380D01*
X132966190Y-73782380D01*
X132870952Y-73734761D01*
X132823333Y-73687142D01*
X132775714Y-73591904D01*
X132728095Y-73401428D01*
X132728095Y-73163333D01*
X132775714Y-72972857D01*
X132823333Y-72877619D01*
X132870952Y-72830000D01*
X132966190Y-72782380D01*
X134251904Y-73782380D02*
X133680476Y-73782380D01*
X133966190Y-73782380D02*
X133966190Y-72782380D01*
X133870952Y-72925238D01*
X133775714Y-73020476D01*
X133680476Y-73068095D01*
%TD*%
M02*
