%TF.GenerationSoftware,KiCad,Pcbnew,(5.1.9)-1*%
%TF.CreationDate,2021-03-20T14:40:20+09:00*%
%TF.ProjectId,converter_IC51-0444-467,636f6e76-6572-4746-9572-5f494335312d,1*%
%TF.SameCoordinates,Original*%
%TF.FileFunction,Copper,L1,Top*%
%TF.FilePolarity,Positive*%
%FSLAX46Y46*%
G04 Gerber Fmt 4.6, Leading zero omitted, Abs format (unit mm)*
G04 Created by KiCad (PCBNEW (5.1.9)-1) date 2021-03-20 14:40:20*
%MOMM*%
%LPD*%
G01*
G04 APERTURE LIST*
%TA.AperFunction,ComponentPad*%
%ADD10C,1.100000*%
%TD*%
%TA.AperFunction,ComponentPad*%
%ADD11O,1.700000X1.700000*%
%TD*%
%TA.AperFunction,ComponentPad*%
%ADD12C,1.700000*%
%TD*%
%TA.AperFunction,ViaPad*%
%ADD13C,0.800000*%
%TD*%
%TA.AperFunction,Conductor*%
%ADD14C,0.250000*%
%TD*%
%TA.AperFunction,NonConductor*%
%ADD15C,0.254000*%
%TD*%
%TA.AperFunction,NonConductor*%
%ADD16C,0.100000*%
%TD*%
G04 APERTURE END LIST*
D10*
%TO.P,J1,44*%
%TO.N,Net-(J1-Pad44)*%
X156950000Y-96000000D03*
%TO.P,J1,43*%
%TO.N,Net-(J1-Pad43)*%
X158550000Y-96800000D03*
%TO.P,J1,42*%
%TO.N,Net-(J1-Pad42)*%
X156950000Y-97600000D03*
%TO.P,J1,41*%
%TO.N,Net-(J1-Pad41)*%
X158550000Y-98400000D03*
%TO.P,J1,40*%
%TO.N,Net-(J1-Pad40)*%
X156950000Y-99200000D03*
%TO.P,J1,39*%
%TO.N,Net-(J1-Pad39)*%
X158550000Y-100000000D03*
%TO.P,J1,38*%
%TO.N,Net-(J1-Pad38)*%
X156950000Y-100800000D03*
%TO.P,J1,37*%
%TO.N,Net-(J1-Pad37)*%
X158550000Y-101600000D03*
%TO.P,J1,36*%
%TO.N,Net-(J1-Pad36)*%
X156950000Y-102400000D03*
%TO.P,J1,35*%
%TO.N,Net-(J1-Pad35)*%
X158550000Y-103200000D03*
%TO.P,J1,34*%
%TO.N,Net-(J1-Pad34)*%
X156950000Y-104000000D03*
%TO.P,J1,33*%
%TO.N,Net-(J1-Pad33)*%
X154000000Y-106950000D03*
%TO.P,J1,32*%
%TO.N,Net-(J1-Pad32)*%
X153200000Y-108550000D03*
%TO.P,J1,31*%
%TO.N,Net-(J1-Pad31)*%
X152400000Y-106950000D03*
%TO.P,J1,30*%
%TO.N,Net-(J1-Pad30)*%
X151600000Y-108550000D03*
%TO.P,J1,29*%
%TO.N,Net-(J1-Pad29)*%
X150800000Y-106950000D03*
%TO.P,J1,28*%
%TO.N,Net-(J1-Pad28)*%
X150000000Y-108550000D03*
%TO.P,J1,27*%
%TO.N,Net-(J1-Pad27)*%
X149200000Y-106950000D03*
%TO.P,J1,26*%
%TO.N,Net-(J1-Pad26)*%
X148400000Y-108550000D03*
%TO.P,J1,25*%
%TO.N,Net-(J1-Pad25)*%
X147600000Y-106950000D03*
%TO.P,J1,24*%
%TO.N,Net-(J1-Pad24)*%
X146800000Y-108550000D03*
%TO.P,J1,23*%
%TO.N,Net-(J1-Pad23)*%
X146000000Y-106950000D03*
%TO.P,J1,22*%
%TO.N,Net-(J1-Pad22)*%
X143050000Y-104000000D03*
%TO.P,J1,21*%
%TO.N,Net-(J1-Pad21)*%
X141450000Y-103200000D03*
%TO.P,J1,20*%
%TO.N,Net-(J1-Pad20)*%
X143050000Y-102400000D03*
%TO.P,J1,19*%
%TO.N,Net-(J1-Pad19)*%
X141450000Y-101600000D03*
%TO.P,J1,18*%
%TO.N,Net-(J1-Pad18)*%
X143050000Y-100800000D03*
%TO.P,J1,17*%
%TO.N,Net-(J1-Pad17)*%
X141450000Y-100000000D03*
%TO.P,J1,16*%
%TO.N,Net-(J1-Pad16)*%
X143050000Y-99200000D03*
%TO.P,J1,15*%
%TO.N,Net-(J1-Pad15)*%
X141450000Y-98400000D03*
%TO.P,J1,14*%
%TO.N,Net-(J1-Pad14)*%
X143050000Y-97600000D03*
%TO.P,J1,13*%
%TO.N,Net-(J1-Pad13)*%
X141450000Y-96800000D03*
%TO.P,J1,12*%
%TO.N,Net-(J1-Pad12)*%
X143050000Y-96000000D03*
%TO.P,J1,11*%
%TO.N,Net-(J1-Pad11)*%
X146000000Y-93050000D03*
%TO.P,J1,10*%
%TO.N,Net-(J1-Pad10)*%
X146800000Y-91450000D03*
%TO.P,J1,9*%
%TO.N,Net-(J1-Pad9)*%
X147600000Y-93050000D03*
%TO.P,J1,8*%
%TO.N,Net-(J1-Pad8)*%
X148400000Y-91450000D03*
%TO.P,J1,7*%
%TO.N,Net-(J1-Pad7)*%
X149200000Y-93050000D03*
%TO.P,J1,6*%
%TO.N,Net-(J1-Pad6)*%
X150000000Y-91450000D03*
%TO.P,J1,5*%
%TO.N,Net-(J1-Pad5)*%
X150800000Y-93050000D03*
%TO.P,J1,4*%
%TO.N,Net-(J1-Pad4)*%
X151600000Y-91450000D03*
%TO.P,J1,3*%
%TO.N,Net-(J1-Pad3)*%
X152400000Y-93050000D03*
%TO.P,J1,2*%
%TO.N,Net-(J1-Pad2)*%
X153200000Y-91450000D03*
%TO.P,J1,1*%
%TO.N,Net-(J1-Pad1)*%
X154000000Y-93050000D03*
%TD*%
D11*
%TO.P,J3,22*%
%TO.N,Net-(J1-Pad44)*%
X169050000Y-73330000D03*
%TO.P,J3,21*%
%TO.N,Net-(J1-Pad43)*%
X169050000Y-75870000D03*
%TO.P,J3,20*%
%TO.N,Net-(J1-Pad42)*%
X169050000Y-78410000D03*
%TO.P,J3,19*%
%TO.N,Net-(J1-Pad41)*%
X169050000Y-80950000D03*
%TO.P,J3,18*%
%TO.N,Net-(J1-Pad40)*%
X169050000Y-83490000D03*
%TO.P,J3,17*%
%TO.N,Net-(J1-Pad39)*%
X169050000Y-86030000D03*
%TO.P,J3,16*%
%TO.N,Net-(J1-Pad38)*%
X169050000Y-88570000D03*
%TO.P,J3,15*%
%TO.N,Net-(J1-Pad37)*%
X169050000Y-91110000D03*
%TO.P,J3,14*%
%TO.N,Net-(J1-Pad36)*%
X169050000Y-93650000D03*
%TO.P,J3,13*%
%TO.N,Net-(J1-Pad35)*%
X169050000Y-96190000D03*
%TO.P,J3,12*%
%TO.N,Net-(J1-Pad34)*%
X169050000Y-98730000D03*
%TO.P,J3,11*%
%TO.N,Net-(J1-Pad33)*%
X169050000Y-101270000D03*
%TO.P,J3,10*%
%TO.N,Net-(J1-Pad32)*%
X169050000Y-103810000D03*
%TO.P,J3,9*%
%TO.N,Net-(J1-Pad31)*%
X169050000Y-106350000D03*
%TO.P,J3,8*%
%TO.N,Net-(J1-Pad30)*%
X169050000Y-108890000D03*
%TO.P,J3,7*%
%TO.N,Net-(J1-Pad29)*%
X169050000Y-111430000D03*
%TO.P,J3,6*%
%TO.N,Net-(J1-Pad28)*%
X169050000Y-113970000D03*
%TO.P,J3,5*%
%TO.N,Net-(J1-Pad27)*%
X169050000Y-116510000D03*
%TO.P,J3,4*%
%TO.N,Net-(J1-Pad26)*%
X169050000Y-119050000D03*
%TO.P,J3,3*%
%TO.N,Net-(J1-Pad25)*%
X169050000Y-121590000D03*
%TO.P,J3,2*%
%TO.N,Net-(J1-Pad24)*%
X169050000Y-124130000D03*
D12*
%TO.P,J3,1*%
%TO.N,Net-(J1-Pad23)*%
X169050000Y-126670000D03*
%TD*%
D11*
%TO.P,J2,22*%
%TO.N,Net-(J1-Pad22)*%
X130950000Y-126670000D03*
%TO.P,J2,21*%
%TO.N,Net-(J1-Pad21)*%
X130950000Y-124130000D03*
%TO.P,J2,20*%
%TO.N,Net-(J1-Pad20)*%
X130950000Y-121590000D03*
%TO.P,J2,19*%
%TO.N,Net-(J1-Pad19)*%
X130950000Y-119050000D03*
%TO.P,J2,18*%
%TO.N,Net-(J1-Pad18)*%
X130950000Y-116510000D03*
%TO.P,J2,17*%
%TO.N,Net-(J1-Pad17)*%
X130950000Y-113970000D03*
%TO.P,J2,16*%
%TO.N,Net-(J1-Pad16)*%
X130950000Y-111430000D03*
%TO.P,J2,15*%
%TO.N,Net-(J1-Pad15)*%
X130950000Y-108890000D03*
%TO.P,J2,14*%
%TO.N,Net-(J1-Pad14)*%
X130950000Y-106350000D03*
%TO.P,J2,13*%
%TO.N,Net-(J1-Pad13)*%
X130950000Y-103810000D03*
%TO.P,J2,12*%
%TO.N,Net-(J1-Pad12)*%
X130950000Y-101270000D03*
%TO.P,J2,11*%
%TO.N,Net-(J1-Pad11)*%
X130950000Y-98730000D03*
%TO.P,J2,10*%
%TO.N,Net-(J1-Pad10)*%
X130950000Y-96190000D03*
%TO.P,J2,9*%
%TO.N,Net-(J1-Pad9)*%
X130950000Y-93650000D03*
%TO.P,J2,8*%
%TO.N,Net-(J1-Pad8)*%
X130950000Y-91110000D03*
%TO.P,J2,7*%
%TO.N,Net-(J1-Pad7)*%
X130950000Y-88570000D03*
%TO.P,J2,6*%
%TO.N,Net-(J1-Pad6)*%
X130950000Y-86030000D03*
%TO.P,J2,5*%
%TO.N,Net-(J1-Pad5)*%
X130950000Y-83490000D03*
%TO.P,J2,4*%
%TO.N,Net-(J1-Pad4)*%
X130950000Y-80950000D03*
%TO.P,J2,3*%
%TO.N,Net-(J1-Pad3)*%
X130950000Y-78410000D03*
%TO.P,J2,2*%
%TO.N,Net-(J1-Pad2)*%
X130950000Y-75870000D03*
D12*
%TO.P,J2,1*%
%TO.N,Net-(J1-Pad1)*%
X130950000Y-73330000D03*
%TD*%
D13*
%TO.N,Net-(J1-Pad42)*%
X156054100Y-92246200D03*
%TO.N,Net-(J1-Pad40)*%
X162357200Y-89852500D03*
%TO.N,Net-(J1-Pad31)*%
X162036200Y-106045900D03*
%TO.N,Net-(J1-Pad29)*%
X161153700Y-111803200D03*
%TO.N,Net-(J1-Pad20)*%
X143944300Y-107756200D03*
%TO.N,Net-(J1-Pad18)*%
X136789500Y-110670500D03*
%TO.N,Net-(J1-Pad9)*%
X138739900Y-93978900D03*
%TO.N,Net-(J1-Pad7)*%
X137123400Y-93454600D03*
%TD*%
D14*
%TO.N,Net-(J1-Pad44)*%
X156950000Y-96000000D02*
X156950000Y-86238000D01*
X156950000Y-86238000D02*
X168682700Y-74505300D01*
X168682700Y-74505300D02*
X169050000Y-74505300D01*
X169050000Y-73330000D02*
X169050000Y-74505300D01*
%TO.N,Net-(J1-Pad43)*%
X169050000Y-75870000D02*
X169050000Y-77045300D01*
X169050000Y-77045300D02*
X168682700Y-77045300D01*
X168682700Y-77045300D02*
X158550000Y-87178000D01*
X158550000Y-87178000D02*
X158550000Y-96800000D01*
%TO.N,Net-(J1-Pad42)*%
X156950000Y-97600000D02*
X156054100Y-96704100D01*
X156054100Y-96704100D02*
X156054100Y-92246200D01*
%TO.N,Net-(J1-Pad41)*%
X158550000Y-98400000D02*
X159575300Y-97374700D01*
X159575300Y-97374700D02*
X159575300Y-91232700D01*
X159575300Y-91232700D02*
X168682700Y-82125300D01*
X168682700Y-82125300D02*
X169050000Y-82125300D01*
X169050000Y-80950000D02*
X169050000Y-82125300D01*
%TO.N,Net-(J1-Pad40)*%
X169050000Y-83490000D02*
X162687500Y-89852500D01*
X162687500Y-89852500D02*
X162357200Y-89852500D01*
%TO.N,Net-(J1-Pad39)*%
X158550000Y-100000000D02*
X166650300Y-91899700D01*
X166650300Y-91899700D02*
X166650300Y-89237700D01*
X166650300Y-89237700D02*
X168682700Y-87205300D01*
X168682700Y-87205300D02*
X169050000Y-87205300D01*
X169050000Y-86030000D02*
X169050000Y-87205300D01*
%TO.N,Net-(J1-Pad37)*%
X169050000Y-91110000D02*
X167874700Y-91110000D01*
X167874700Y-91110000D02*
X167874700Y-92275300D01*
X167874700Y-92275300D02*
X158550000Y-101600000D01*
%TO.N,Net-(J1-Pad36)*%
X169050000Y-94825300D02*
X168256000Y-94825300D01*
X168256000Y-94825300D02*
X158202900Y-104878400D01*
X158202900Y-104878400D02*
X156588400Y-104878400D01*
X156588400Y-104878400D02*
X156052900Y-104342900D01*
X156052900Y-104342900D02*
X156052900Y-103297100D01*
X156052900Y-103297100D02*
X156950000Y-102400000D01*
X169050000Y-93650000D02*
X169050000Y-94825300D01*
%TO.N,Net-(J1-Pad31)*%
X167874700Y-106350000D02*
X167570600Y-106045900D01*
X167570600Y-106045900D02*
X162036200Y-106045900D01*
X169050000Y-106350000D02*
X167874700Y-106350000D01*
%TO.N,Net-(J1-Pad29)*%
X161153700Y-111803200D02*
X155379900Y-106029400D01*
X155379900Y-106029400D02*
X151720600Y-106029400D01*
X151720600Y-106029400D02*
X150800000Y-106950000D01*
%TO.N,Net-(J1-Pad27)*%
X167874700Y-116510000D02*
X156943800Y-105579100D01*
X156943800Y-105579100D02*
X150570900Y-105579100D01*
X150570900Y-105579100D02*
X149200000Y-106950000D01*
X169050000Y-116510000D02*
X167874700Y-116510000D01*
%TO.N,Net-(J1-Pad25)*%
X169050000Y-121590000D02*
X158593800Y-121590000D01*
X158593800Y-121590000D02*
X145124600Y-108120800D01*
X145124600Y-108120800D02*
X145124600Y-106525200D01*
X145124600Y-106525200D02*
X145575200Y-106074600D01*
X145575200Y-106074600D02*
X146724600Y-106074600D01*
X146724600Y-106074600D02*
X147600000Y-106950000D01*
%TO.N,Net-(J1-Pad22)*%
X143050000Y-104000000D02*
X143050000Y-113762000D01*
X143050000Y-113762000D02*
X131317300Y-125494700D01*
X131317300Y-125494700D02*
X130950000Y-125494700D01*
X130950000Y-126670000D02*
X130950000Y-125494700D01*
%TO.N,Net-(J1-Pad21)*%
X130950000Y-124130000D02*
X130950000Y-122954700D01*
X130950000Y-122954700D02*
X131317300Y-122954700D01*
X131317300Y-122954700D02*
X141450000Y-112822000D01*
X141450000Y-112822000D02*
X141450000Y-103200000D01*
%TO.N,Net-(J1-Pad20)*%
X143050000Y-102400000D02*
X143944300Y-103294300D01*
X143944300Y-103294300D02*
X143944300Y-107756200D01*
%TO.N,Net-(J1-Pad19)*%
X130950000Y-119050000D02*
X130950000Y-117874700D01*
X130950000Y-117874700D02*
X131317300Y-117874700D01*
X131317300Y-117874700D02*
X140424700Y-108767300D01*
X140424700Y-108767300D02*
X140424700Y-102625300D01*
X140424700Y-102625300D02*
X141450000Y-101600000D01*
%TO.N,Net-(J1-Pad18)*%
X130950000Y-116510000D02*
X136789500Y-110670500D01*
%TO.N,Net-(J1-Pad17)*%
X130950000Y-113970000D02*
X130950000Y-112794700D01*
X130950000Y-112794700D02*
X131317300Y-112794700D01*
X131317300Y-112794700D02*
X135538900Y-108573100D01*
X135538900Y-108573100D02*
X135538900Y-105911100D01*
X135538900Y-105911100D02*
X141450000Y-100000000D01*
%TO.N,Net-(J1-Pad15)*%
X132125300Y-108890000D02*
X132125300Y-107724700D01*
X132125300Y-107724700D02*
X141450000Y-98400000D01*
X130950000Y-108890000D02*
X132125300Y-108890000D01*
%TO.N,Net-(J1-Pad14)*%
X130950000Y-105174700D02*
X131755700Y-105174700D01*
X131755700Y-105174700D02*
X141825700Y-95104700D01*
X141825700Y-95104700D02*
X143404000Y-95104700D01*
X143404000Y-95104700D02*
X143965100Y-95665800D01*
X143965100Y-95665800D02*
X143965100Y-96684900D01*
X143965100Y-96684900D02*
X143050000Y-97600000D01*
X130950000Y-106350000D02*
X130950000Y-105174700D01*
%TO.N,Net-(J1-Pad9)*%
X132125300Y-93650000D02*
X132655800Y-94180500D01*
X132655800Y-94180500D02*
X138538300Y-94180500D01*
X138538300Y-94180500D02*
X138739900Y-93978900D01*
X130950000Y-93650000D02*
X132125300Y-93650000D01*
%TO.N,Net-(J1-Pad7)*%
X130950000Y-88570000D02*
X132125300Y-88570000D01*
X132125300Y-88570000D02*
X137009900Y-93454600D01*
X137009900Y-93454600D02*
X137123400Y-93454600D01*
%TO.N,Net-(J1-Pad5)*%
X130950000Y-83490000D02*
X132125300Y-83490000D01*
X132125300Y-83490000D02*
X142560700Y-93925400D01*
X142560700Y-93925400D02*
X149924600Y-93925400D01*
X149924600Y-93925400D02*
X150800000Y-93050000D01*
%TO.N,Net-(J1-Pad2)*%
X130950000Y-75870000D02*
X137620000Y-75870000D01*
X137620000Y-75870000D02*
X153200000Y-91450000D01*
%TO.N,Net-(J1-Pad1)*%
X130950000Y-73330000D02*
X136333300Y-73330000D01*
X136333300Y-73330000D02*
X154090600Y-91087300D01*
X154090600Y-91087300D02*
X154090600Y-92959400D01*
X154090600Y-92959400D02*
X154000000Y-93050000D01*
%TD*%
D15*
X144584599Y-108660801D02*
X144613603Y-108684604D01*
X158030001Y-122101003D01*
X158053799Y-122130001D01*
X158169524Y-122224974D01*
X158301553Y-122295546D01*
X158444814Y-122339003D01*
X158556467Y-122350000D01*
X158556476Y-122350000D01*
X158593799Y-122353676D01*
X158631122Y-122350000D01*
X167771822Y-122350000D01*
X167896525Y-122536632D01*
X168103368Y-122743475D01*
X168277760Y-122860000D01*
X168103368Y-122976525D01*
X167896525Y-123183368D01*
X167734010Y-123426589D01*
X167622068Y-123696842D01*
X167565000Y-123983740D01*
X167565000Y-124276260D01*
X167622068Y-124563158D01*
X167734010Y-124833411D01*
X167896525Y-125076632D01*
X168103368Y-125283475D01*
X168277760Y-125400000D01*
X168103368Y-125516525D01*
X167896525Y-125723368D01*
X167734010Y-125966589D01*
X167622068Y-126236842D01*
X167565000Y-126523740D01*
X167565000Y-126816260D01*
X167622068Y-127103158D01*
X167734010Y-127373411D01*
X167896525Y-127616632D01*
X168103368Y-127823475D01*
X168240345Y-127915000D01*
X131759655Y-127915000D01*
X131896632Y-127823475D01*
X132103475Y-127616632D01*
X132265990Y-127373411D01*
X132377932Y-127103158D01*
X132435000Y-126816260D01*
X132435000Y-126523740D01*
X132377932Y-126236842D01*
X132265990Y-125966589D01*
X132127491Y-125759310D01*
X143561008Y-114325795D01*
X143590001Y-114302001D01*
X143613795Y-114273008D01*
X143613799Y-114273004D01*
X143684973Y-114186277D01*
X143684974Y-114186276D01*
X143755546Y-114054247D01*
X143799003Y-113910986D01*
X143810000Y-113799333D01*
X143810000Y-113799324D01*
X143813676Y-113762001D01*
X143810000Y-113724678D01*
X143810000Y-108784763D01*
X143842361Y-108791200D01*
X144046239Y-108791200D01*
X144246198Y-108751426D01*
X144434556Y-108673405D01*
X144538141Y-108604192D01*
X144584599Y-108660801D01*
%TA.AperFunction,NonConductor*%
D16*
G36*
X144584599Y-108660801D02*
G01*
X144613603Y-108684604D01*
X158030001Y-122101003D01*
X158053799Y-122130001D01*
X158169524Y-122224974D01*
X158301553Y-122295546D01*
X158444814Y-122339003D01*
X158556467Y-122350000D01*
X158556476Y-122350000D01*
X158593799Y-122353676D01*
X158631122Y-122350000D01*
X167771822Y-122350000D01*
X167896525Y-122536632D01*
X168103368Y-122743475D01*
X168277760Y-122860000D01*
X168103368Y-122976525D01*
X167896525Y-123183368D01*
X167734010Y-123426589D01*
X167622068Y-123696842D01*
X167565000Y-123983740D01*
X167565000Y-124276260D01*
X167622068Y-124563158D01*
X167734010Y-124833411D01*
X167896525Y-125076632D01*
X168103368Y-125283475D01*
X168277760Y-125400000D01*
X168103368Y-125516525D01*
X167896525Y-125723368D01*
X167734010Y-125966589D01*
X167622068Y-126236842D01*
X167565000Y-126523740D01*
X167565000Y-126816260D01*
X167622068Y-127103158D01*
X167734010Y-127373411D01*
X167896525Y-127616632D01*
X168103368Y-127823475D01*
X168240345Y-127915000D01*
X131759655Y-127915000D01*
X131896632Y-127823475D01*
X132103475Y-127616632D01*
X132265990Y-127373411D01*
X132377932Y-127103158D01*
X132435000Y-126816260D01*
X132435000Y-126523740D01*
X132377932Y-126236842D01*
X132265990Y-125966589D01*
X132127491Y-125759310D01*
X143561008Y-114325795D01*
X143590001Y-114302001D01*
X143613795Y-114273008D01*
X143613799Y-114273004D01*
X143684973Y-114186277D01*
X143684974Y-114186276D01*
X143755546Y-114054247D01*
X143799003Y-113910986D01*
X143810000Y-113799333D01*
X143810000Y-113799324D01*
X143813676Y-113762001D01*
X143810000Y-113724678D01*
X143810000Y-108784763D01*
X143842361Y-108791200D01*
X144046239Y-108791200D01*
X144246198Y-108751426D01*
X144434556Y-108673405D01*
X144538141Y-108604192D01*
X144584599Y-108660801D01*
G37*
%TD.AperFunction*%
D15*
X129796525Y-125076632D02*
X130003368Y-125283475D01*
X130177760Y-125400000D01*
X130003368Y-125516525D01*
X129796525Y-125723368D01*
X129705000Y-125860345D01*
X129705000Y-124939655D01*
X129796525Y-125076632D01*
%TA.AperFunction,NonConductor*%
D16*
G36*
X129796525Y-125076632D02*
G01*
X130003368Y-125283475D01*
X130177760Y-125400000D01*
X130003368Y-125516525D01*
X129796525Y-125723368D01*
X129705000Y-125860345D01*
X129705000Y-124939655D01*
X129796525Y-125076632D01*
G37*
%TD.AperFunction*%
D15*
X170295000Y-125860345D02*
X170203475Y-125723368D01*
X169996632Y-125516525D01*
X169822240Y-125400000D01*
X169996632Y-125283475D01*
X170203475Y-125076632D01*
X170295000Y-124939655D01*
X170295000Y-125860345D01*
%TA.AperFunction,NonConductor*%
D16*
G36*
X170295000Y-125860345D02*
G01*
X170203475Y-125723368D01*
X169996632Y-125516525D01*
X169822240Y-125400000D01*
X169996632Y-125283475D01*
X170203475Y-125076632D01*
X170295000Y-124939655D01*
X170295000Y-125860345D01*
G37*
%TD.AperFunction*%
D15*
X142290000Y-104915844D02*
X142290001Y-113447196D01*
X132279059Y-123458140D01*
X132265990Y-123426589D01*
X132127491Y-123219310D01*
X141961004Y-113385798D01*
X141990001Y-113362001D01*
X142084974Y-113246276D01*
X142155546Y-113114247D01*
X142199003Y-112970986D01*
X142210000Y-112859333D01*
X142210000Y-112859325D01*
X142213676Y-112822000D01*
X142210000Y-112784675D01*
X142210000Y-104835844D01*
X142290000Y-104915844D01*
%TA.AperFunction,NonConductor*%
D16*
G36*
X142290000Y-104915844D02*
G01*
X142290001Y-113447196D01*
X132279059Y-123458140D01*
X132265990Y-123426589D01*
X132127491Y-123219310D01*
X141961004Y-113385798D01*
X141990001Y-113362001D01*
X142084974Y-113246276D01*
X142155546Y-113114247D01*
X142199003Y-112970986D01*
X142210000Y-112859333D01*
X142210000Y-112859325D01*
X142213676Y-112822000D01*
X142210000Y-112784675D01*
X142210000Y-104835844D01*
X142290000Y-104915844D01*
G37*
%TD.AperFunction*%
D15*
X129796525Y-122536632D02*
X130003368Y-122743475D01*
X130177760Y-122860000D01*
X130003368Y-122976525D01*
X129796525Y-123183368D01*
X129705000Y-123320345D01*
X129705000Y-122399655D01*
X129796525Y-122536632D01*
%TA.AperFunction,NonConductor*%
D16*
G36*
X129796525Y-122536632D02*
G01*
X130003368Y-122743475D01*
X130177760Y-122860000D01*
X130003368Y-122976525D01*
X129796525Y-123183368D01*
X129705000Y-123320345D01*
X129705000Y-122399655D01*
X129796525Y-122536632D01*
G37*
%TD.AperFunction*%
D15*
X170295000Y-123320345D02*
X170203475Y-123183368D01*
X169996632Y-122976525D01*
X169822240Y-122860000D01*
X169996632Y-122743475D01*
X170203475Y-122536632D01*
X170295000Y-122399655D01*
X170295000Y-123320345D01*
%TA.AperFunction,NonConductor*%
D16*
G36*
X170295000Y-123320345D02*
G01*
X170203475Y-123183368D01*
X169996632Y-122976525D01*
X169822240Y-122860000D01*
X169996632Y-122743475D01*
X170203475Y-122536632D01*
X170295000Y-122399655D01*
X170295000Y-123320345D01*
G37*
%TD.AperFunction*%
D15*
X140690000Y-112507198D02*
X132279059Y-120918140D01*
X132265990Y-120886589D01*
X132103475Y-120643368D01*
X131896632Y-120436525D01*
X131722240Y-120320000D01*
X131896632Y-120203475D01*
X132103475Y-119996632D01*
X132265990Y-119753411D01*
X132377932Y-119483158D01*
X132435000Y-119196260D01*
X132435000Y-118903740D01*
X132377932Y-118616842D01*
X132265990Y-118346589D01*
X132127491Y-118139310D01*
X140690000Y-109576802D01*
X140690000Y-112507198D01*
%TA.AperFunction,NonConductor*%
D16*
G36*
X140690000Y-112507198D02*
G01*
X132279059Y-120918140D01*
X132265990Y-120886589D01*
X132103475Y-120643368D01*
X131896632Y-120436525D01*
X131722240Y-120320000D01*
X131896632Y-120203475D01*
X132103475Y-119996632D01*
X132265990Y-119753411D01*
X132377932Y-119483158D01*
X132435000Y-119196260D01*
X132435000Y-118903740D01*
X132377932Y-118616842D01*
X132265990Y-118346589D01*
X132127491Y-118139310D01*
X140690000Y-109576802D01*
X140690000Y-112507198D01*
G37*
%TD.AperFunction*%
D15*
X160118700Y-111843002D02*
X160118700Y-111905139D01*
X160158474Y-112105098D01*
X160236495Y-112293456D01*
X160349763Y-112462974D01*
X160493926Y-112607137D01*
X160663444Y-112720405D01*
X160851802Y-112798426D01*
X161051761Y-112838200D01*
X161255639Y-112838200D01*
X161455598Y-112798426D01*
X161643956Y-112720405D01*
X161813474Y-112607137D01*
X161957637Y-112462974D01*
X162070905Y-112293456D01*
X162148926Y-112105098D01*
X162188700Y-111905139D01*
X162188700Y-111898802D01*
X167310901Y-117021003D01*
X167334699Y-117050001D01*
X167363697Y-117073799D01*
X167450423Y-117144974D01*
X167578459Y-117213411D01*
X167582453Y-117215546D01*
X167725714Y-117259003D01*
X167767204Y-117263089D01*
X167896525Y-117456632D01*
X168103368Y-117663475D01*
X168277760Y-117780000D01*
X168103368Y-117896525D01*
X167896525Y-118103368D01*
X167734010Y-118346589D01*
X167622068Y-118616842D01*
X167565000Y-118903740D01*
X167565000Y-119196260D01*
X167622068Y-119483158D01*
X167734010Y-119753411D01*
X167896525Y-119996632D01*
X168103368Y-120203475D01*
X168277760Y-120320000D01*
X168103368Y-120436525D01*
X167896525Y-120643368D01*
X167771822Y-120830000D01*
X158908602Y-120830000D01*
X147551592Y-109472991D01*
X147555394Y-109470450D01*
X147600000Y-109425844D01*
X147644606Y-109470450D01*
X147838692Y-109600134D01*
X148054348Y-109689461D01*
X148283288Y-109735000D01*
X148516712Y-109735000D01*
X148745652Y-109689461D01*
X148961308Y-109600134D01*
X149155394Y-109470450D01*
X149200000Y-109425844D01*
X149244606Y-109470450D01*
X149438692Y-109600134D01*
X149654348Y-109689461D01*
X149883288Y-109735000D01*
X150116712Y-109735000D01*
X150345652Y-109689461D01*
X150561308Y-109600134D01*
X150755394Y-109470450D01*
X150800000Y-109425844D01*
X150844606Y-109470450D01*
X151038692Y-109600134D01*
X151254348Y-109689461D01*
X151483288Y-109735000D01*
X151716712Y-109735000D01*
X151945652Y-109689461D01*
X152161308Y-109600134D01*
X152355394Y-109470450D01*
X152400000Y-109425844D01*
X152444606Y-109470450D01*
X152638692Y-109600134D01*
X152854348Y-109689461D01*
X153083288Y-109735000D01*
X153316712Y-109735000D01*
X153545652Y-109689461D01*
X153761308Y-109600134D01*
X153955394Y-109470450D01*
X154120450Y-109305394D01*
X154250134Y-109111308D01*
X154339461Y-108895652D01*
X154385000Y-108666712D01*
X154385000Y-108433288D01*
X154339461Y-108204348D01*
X154295967Y-108099344D01*
X154345652Y-108089461D01*
X154561308Y-108000134D01*
X154755394Y-107870450D01*
X154920450Y-107705394D01*
X155050134Y-107511308D01*
X155139461Y-107295652D01*
X155185000Y-107066712D01*
X155185000Y-106909301D01*
X160118700Y-111843002D01*
%TA.AperFunction,NonConductor*%
D16*
G36*
X160118700Y-111843002D02*
G01*
X160118700Y-111905139D01*
X160158474Y-112105098D01*
X160236495Y-112293456D01*
X160349763Y-112462974D01*
X160493926Y-112607137D01*
X160663444Y-112720405D01*
X160851802Y-112798426D01*
X161051761Y-112838200D01*
X161255639Y-112838200D01*
X161455598Y-112798426D01*
X161643956Y-112720405D01*
X161813474Y-112607137D01*
X161957637Y-112462974D01*
X162070905Y-112293456D01*
X162148926Y-112105098D01*
X162188700Y-111905139D01*
X162188700Y-111898802D01*
X167310901Y-117021003D01*
X167334699Y-117050001D01*
X167363697Y-117073799D01*
X167450423Y-117144974D01*
X167578459Y-117213411D01*
X167582453Y-117215546D01*
X167725714Y-117259003D01*
X167767204Y-117263089D01*
X167896525Y-117456632D01*
X168103368Y-117663475D01*
X168277760Y-117780000D01*
X168103368Y-117896525D01*
X167896525Y-118103368D01*
X167734010Y-118346589D01*
X167622068Y-118616842D01*
X167565000Y-118903740D01*
X167565000Y-119196260D01*
X167622068Y-119483158D01*
X167734010Y-119753411D01*
X167896525Y-119996632D01*
X168103368Y-120203475D01*
X168277760Y-120320000D01*
X168103368Y-120436525D01*
X167896525Y-120643368D01*
X167771822Y-120830000D01*
X158908602Y-120830000D01*
X147551592Y-109472991D01*
X147555394Y-109470450D01*
X147600000Y-109425844D01*
X147644606Y-109470450D01*
X147838692Y-109600134D01*
X148054348Y-109689461D01*
X148283288Y-109735000D01*
X148516712Y-109735000D01*
X148745652Y-109689461D01*
X148961308Y-109600134D01*
X149155394Y-109470450D01*
X149200000Y-109425844D01*
X149244606Y-109470450D01*
X149438692Y-109600134D01*
X149654348Y-109689461D01*
X149883288Y-109735000D01*
X150116712Y-109735000D01*
X150345652Y-109689461D01*
X150561308Y-109600134D01*
X150755394Y-109470450D01*
X150800000Y-109425844D01*
X150844606Y-109470450D01*
X151038692Y-109600134D01*
X151254348Y-109689461D01*
X151483288Y-109735000D01*
X151716712Y-109735000D01*
X151945652Y-109689461D01*
X152161308Y-109600134D01*
X152355394Y-109470450D01*
X152400000Y-109425844D01*
X152444606Y-109470450D01*
X152638692Y-109600134D01*
X152854348Y-109689461D01*
X153083288Y-109735000D01*
X153316712Y-109735000D01*
X153545652Y-109689461D01*
X153761308Y-109600134D01*
X153955394Y-109470450D01*
X154120450Y-109305394D01*
X154250134Y-109111308D01*
X154339461Y-108895652D01*
X154385000Y-108666712D01*
X154385000Y-108433288D01*
X154339461Y-108204348D01*
X154295967Y-108099344D01*
X154345652Y-108089461D01*
X154561308Y-108000134D01*
X154755394Y-107870450D01*
X154920450Y-107705394D01*
X155050134Y-107511308D01*
X155139461Y-107295652D01*
X155185000Y-107066712D01*
X155185000Y-106909301D01*
X160118700Y-111843002D01*
G37*
%TD.AperFunction*%
D15*
X170295000Y-120780345D02*
X170203475Y-120643368D01*
X169996632Y-120436525D01*
X169822240Y-120320000D01*
X169996632Y-120203475D01*
X170203475Y-119996632D01*
X170295000Y-119859655D01*
X170295000Y-120780345D01*
%TA.AperFunction,NonConductor*%
D16*
G36*
X170295000Y-120780345D02*
G01*
X170203475Y-120643368D01*
X169996632Y-120436525D01*
X169822240Y-120320000D01*
X169996632Y-120203475D01*
X170203475Y-119996632D01*
X170295000Y-119859655D01*
X170295000Y-120780345D01*
G37*
%TD.AperFunction*%
D15*
X129796525Y-119996632D02*
X130003368Y-120203475D01*
X130177760Y-120320000D01*
X130003368Y-120436525D01*
X129796525Y-120643368D01*
X129705000Y-120780345D01*
X129705000Y-119859655D01*
X129796525Y-119996632D01*
%TA.AperFunction,NonConductor*%
D16*
G36*
X129796525Y-119996632D02*
G01*
X130003368Y-120203475D01*
X130177760Y-120320000D01*
X130003368Y-120436525D01*
X129796525Y-120643368D01*
X129705000Y-120780345D01*
X129705000Y-119859655D01*
X129796525Y-119996632D01*
G37*
%TD.AperFunction*%
D15*
X170295000Y-118240345D02*
X170203475Y-118103368D01*
X169996632Y-117896525D01*
X169822240Y-117780000D01*
X169996632Y-117663475D01*
X170203475Y-117456632D01*
X170295000Y-117319655D01*
X170295000Y-118240345D01*
%TA.AperFunction,NonConductor*%
D16*
G36*
X170295000Y-118240345D02*
G01*
X170203475Y-118103368D01*
X169996632Y-117896525D01*
X169822240Y-117780000D01*
X169996632Y-117663475D01*
X170203475Y-117456632D01*
X170295000Y-117319655D01*
X170295000Y-118240345D01*
G37*
%TD.AperFunction*%
D15*
X129796525Y-117456632D02*
X130003368Y-117663475D01*
X130177760Y-117780000D01*
X130003368Y-117896525D01*
X129796525Y-118103368D01*
X129705000Y-118240345D01*
X129705000Y-117319655D01*
X129796525Y-117456632D01*
%TA.AperFunction,NonConductor*%
D16*
G36*
X129796525Y-117456632D02*
G01*
X130003368Y-117663475D01*
X130177760Y-117780000D01*
X130003368Y-117896525D01*
X129796525Y-118103368D01*
X129705000Y-118240345D01*
X129705000Y-117319655D01*
X129796525Y-117456632D01*
G37*
%TD.AperFunction*%
D15*
X170295000Y-115700345D02*
X170203475Y-115563368D01*
X169996632Y-115356525D01*
X169822240Y-115240000D01*
X169996632Y-115123475D01*
X170203475Y-114916632D01*
X170295000Y-114779655D01*
X170295000Y-115700345D01*
%TA.AperFunction,NonConductor*%
D16*
G36*
X170295000Y-115700345D02*
G01*
X170203475Y-115563368D01*
X169996632Y-115356525D01*
X169822240Y-115240000D01*
X169996632Y-115123475D01*
X170203475Y-114916632D01*
X170295000Y-114779655D01*
X170295000Y-115700345D01*
G37*
%TD.AperFunction*%
D15*
X129796525Y-114916632D02*
X130003368Y-115123475D01*
X130177760Y-115240000D01*
X130003368Y-115356525D01*
X129796525Y-115563368D01*
X129705000Y-115700345D01*
X129705000Y-114779655D01*
X129796525Y-114916632D01*
%TA.AperFunction,NonConductor*%
D16*
G36*
X129796525Y-114916632D02*
G01*
X130003368Y-115123475D01*
X130177760Y-115240000D01*
X130003368Y-115356525D01*
X129796525Y-115563368D01*
X129705000Y-115700345D01*
X129705000Y-114779655D01*
X129796525Y-114916632D01*
G37*
%TD.AperFunction*%
D15*
X167622068Y-96623158D02*
X167734010Y-96893411D01*
X167896525Y-97136632D01*
X168103368Y-97343475D01*
X168277760Y-97460000D01*
X168103368Y-97576525D01*
X167896525Y-97783368D01*
X167734010Y-98026589D01*
X167622068Y-98296842D01*
X167565000Y-98583740D01*
X167565000Y-98876260D01*
X167622068Y-99163158D01*
X167734010Y-99433411D01*
X167896525Y-99676632D01*
X168103368Y-99883475D01*
X168277760Y-100000000D01*
X168103368Y-100116525D01*
X167896525Y-100323368D01*
X167734010Y-100566589D01*
X167622068Y-100836842D01*
X167565000Y-101123740D01*
X167565000Y-101416260D01*
X167622068Y-101703158D01*
X167734010Y-101973411D01*
X167896525Y-102216632D01*
X168103368Y-102423475D01*
X168277760Y-102540000D01*
X168103368Y-102656525D01*
X167896525Y-102863368D01*
X167734010Y-103106589D01*
X167622068Y-103376842D01*
X167565000Y-103663740D01*
X167565000Y-103956260D01*
X167622068Y-104243158D01*
X167734010Y-104513411D01*
X167896525Y-104756632D01*
X168103368Y-104963475D01*
X168277760Y-105080000D01*
X168103368Y-105196525D01*
X167925858Y-105374035D01*
X167862847Y-105340354D01*
X167719586Y-105296897D01*
X167607933Y-105285900D01*
X167607922Y-105285900D01*
X167570600Y-105282224D01*
X167533278Y-105285900D01*
X162739911Y-105285900D01*
X162695974Y-105241963D01*
X162526456Y-105128695D01*
X162338098Y-105050674D01*
X162138139Y-105010900D01*
X161934261Y-105010900D01*
X161734302Y-105050674D01*
X161545944Y-105128695D01*
X161376426Y-105241963D01*
X161232263Y-105386126D01*
X161118995Y-105555644D01*
X161040974Y-105744002D01*
X161001200Y-105943961D01*
X161001200Y-106147839D01*
X161040974Y-106347798D01*
X161118995Y-106536156D01*
X161232263Y-106705674D01*
X161376426Y-106849837D01*
X161545944Y-106963105D01*
X161734302Y-107041126D01*
X161934261Y-107080900D01*
X162138139Y-107080900D01*
X162338098Y-107041126D01*
X162526456Y-106963105D01*
X162695974Y-106849837D01*
X162739911Y-106805900D01*
X167255799Y-106805900D01*
X167310896Y-106860997D01*
X167334699Y-106890001D01*
X167450424Y-106984974D01*
X167582453Y-107055546D01*
X167725714Y-107099003D01*
X167767204Y-107103089D01*
X167896525Y-107296632D01*
X168103368Y-107503475D01*
X168277760Y-107620000D01*
X168103368Y-107736525D01*
X167896525Y-107943368D01*
X167734010Y-108186589D01*
X167622068Y-108456842D01*
X167565000Y-108743740D01*
X167565000Y-109036260D01*
X167622068Y-109323158D01*
X167734010Y-109593411D01*
X167896525Y-109836632D01*
X168103368Y-110043475D01*
X168277760Y-110160000D01*
X168103368Y-110276525D01*
X167896525Y-110483368D01*
X167734010Y-110726589D01*
X167622068Y-110996842D01*
X167565000Y-111283740D01*
X167565000Y-111576260D01*
X167622068Y-111863158D01*
X167734010Y-112133411D01*
X167896525Y-112376632D01*
X168103368Y-112583475D01*
X168277760Y-112700000D01*
X168103368Y-112816525D01*
X167896525Y-113023368D01*
X167734010Y-113266589D01*
X167622068Y-113536842D01*
X167565000Y-113823740D01*
X167565000Y-114116260D01*
X167622068Y-114403158D01*
X167734010Y-114673411D01*
X167896525Y-114916632D01*
X168103368Y-115123475D01*
X168277760Y-115240000D01*
X168103368Y-115356525D01*
X167949697Y-115510196D01*
X158077901Y-105638400D01*
X158165578Y-105638400D01*
X158202900Y-105642076D01*
X158240222Y-105638400D01*
X158240233Y-105638400D01*
X158351886Y-105627403D01*
X158495147Y-105583946D01*
X158627176Y-105513374D01*
X158742901Y-105418401D01*
X158766704Y-105389397D01*
X167607281Y-96548821D01*
X167622068Y-96623158D01*
%TA.AperFunction,NonConductor*%
D16*
G36*
X167622068Y-96623158D02*
G01*
X167734010Y-96893411D01*
X167896525Y-97136632D01*
X168103368Y-97343475D01*
X168277760Y-97460000D01*
X168103368Y-97576525D01*
X167896525Y-97783368D01*
X167734010Y-98026589D01*
X167622068Y-98296842D01*
X167565000Y-98583740D01*
X167565000Y-98876260D01*
X167622068Y-99163158D01*
X167734010Y-99433411D01*
X167896525Y-99676632D01*
X168103368Y-99883475D01*
X168277760Y-100000000D01*
X168103368Y-100116525D01*
X167896525Y-100323368D01*
X167734010Y-100566589D01*
X167622068Y-100836842D01*
X167565000Y-101123740D01*
X167565000Y-101416260D01*
X167622068Y-101703158D01*
X167734010Y-101973411D01*
X167896525Y-102216632D01*
X168103368Y-102423475D01*
X168277760Y-102540000D01*
X168103368Y-102656525D01*
X167896525Y-102863368D01*
X167734010Y-103106589D01*
X167622068Y-103376842D01*
X167565000Y-103663740D01*
X167565000Y-103956260D01*
X167622068Y-104243158D01*
X167734010Y-104513411D01*
X167896525Y-104756632D01*
X168103368Y-104963475D01*
X168277760Y-105080000D01*
X168103368Y-105196525D01*
X167925858Y-105374035D01*
X167862847Y-105340354D01*
X167719586Y-105296897D01*
X167607933Y-105285900D01*
X167607922Y-105285900D01*
X167570600Y-105282224D01*
X167533278Y-105285900D01*
X162739911Y-105285900D01*
X162695974Y-105241963D01*
X162526456Y-105128695D01*
X162338098Y-105050674D01*
X162138139Y-105010900D01*
X161934261Y-105010900D01*
X161734302Y-105050674D01*
X161545944Y-105128695D01*
X161376426Y-105241963D01*
X161232263Y-105386126D01*
X161118995Y-105555644D01*
X161040974Y-105744002D01*
X161001200Y-105943961D01*
X161001200Y-106147839D01*
X161040974Y-106347798D01*
X161118995Y-106536156D01*
X161232263Y-106705674D01*
X161376426Y-106849837D01*
X161545944Y-106963105D01*
X161734302Y-107041126D01*
X161934261Y-107080900D01*
X162138139Y-107080900D01*
X162338098Y-107041126D01*
X162526456Y-106963105D01*
X162695974Y-106849837D01*
X162739911Y-106805900D01*
X167255799Y-106805900D01*
X167310896Y-106860997D01*
X167334699Y-106890001D01*
X167450424Y-106984974D01*
X167582453Y-107055546D01*
X167725714Y-107099003D01*
X167767204Y-107103089D01*
X167896525Y-107296632D01*
X168103368Y-107503475D01*
X168277760Y-107620000D01*
X168103368Y-107736525D01*
X167896525Y-107943368D01*
X167734010Y-108186589D01*
X167622068Y-108456842D01*
X167565000Y-108743740D01*
X167565000Y-109036260D01*
X167622068Y-109323158D01*
X167734010Y-109593411D01*
X167896525Y-109836632D01*
X168103368Y-110043475D01*
X168277760Y-110160000D01*
X168103368Y-110276525D01*
X167896525Y-110483368D01*
X167734010Y-110726589D01*
X167622068Y-110996842D01*
X167565000Y-111283740D01*
X167565000Y-111576260D01*
X167622068Y-111863158D01*
X167734010Y-112133411D01*
X167896525Y-112376632D01*
X168103368Y-112583475D01*
X168277760Y-112700000D01*
X168103368Y-112816525D01*
X167896525Y-113023368D01*
X167734010Y-113266589D01*
X167622068Y-113536842D01*
X167565000Y-113823740D01*
X167565000Y-114116260D01*
X167622068Y-114403158D01*
X167734010Y-114673411D01*
X167896525Y-114916632D01*
X168103368Y-115123475D01*
X168277760Y-115240000D01*
X168103368Y-115356525D01*
X167949697Y-115510196D01*
X158077901Y-105638400D01*
X158165578Y-105638400D01*
X158202900Y-105642076D01*
X158240222Y-105638400D01*
X158240233Y-105638400D01*
X158351886Y-105627403D01*
X158495147Y-105583946D01*
X158627176Y-105513374D01*
X158742901Y-105418401D01*
X158766704Y-105389397D01*
X167607281Y-96548821D01*
X167622068Y-96623158D01*
G37*
%TD.AperFunction*%
D15*
X139664700Y-108452498D02*
X137774144Y-110343054D01*
X137706705Y-110180244D01*
X137593437Y-110010726D01*
X137449274Y-109866563D01*
X137279756Y-109753295D01*
X137091398Y-109675274D01*
X136891439Y-109635500D01*
X136687561Y-109635500D01*
X136487602Y-109675274D01*
X136299244Y-109753295D01*
X136129726Y-109866563D01*
X135985563Y-110010726D01*
X135872295Y-110180244D01*
X135794274Y-110368602D01*
X135754500Y-110568561D01*
X135754500Y-110630698D01*
X132435000Y-113950199D01*
X132435000Y-113823740D01*
X132377932Y-113536842D01*
X132265990Y-113266589D01*
X132127491Y-113059310D01*
X136049904Y-109136898D01*
X136078901Y-109113101D01*
X136122852Y-109059547D01*
X136173874Y-108997377D01*
X136244446Y-108865347D01*
X136244446Y-108865346D01*
X136287903Y-108722086D01*
X136298900Y-108610433D01*
X136298900Y-108610423D01*
X136302576Y-108573100D01*
X136298900Y-108535777D01*
X136298900Y-106225901D01*
X139664701Y-102860101D01*
X139664700Y-108452498D01*
%TA.AperFunction,NonConductor*%
D16*
G36*
X139664700Y-108452498D02*
G01*
X137774144Y-110343054D01*
X137706705Y-110180244D01*
X137593437Y-110010726D01*
X137449274Y-109866563D01*
X137279756Y-109753295D01*
X137091398Y-109675274D01*
X136891439Y-109635500D01*
X136687561Y-109635500D01*
X136487602Y-109675274D01*
X136299244Y-109753295D01*
X136129726Y-109866563D01*
X135985563Y-110010726D01*
X135872295Y-110180244D01*
X135794274Y-110368602D01*
X135754500Y-110568561D01*
X135754500Y-110630698D01*
X132435000Y-113950199D01*
X132435000Y-113823740D01*
X132377932Y-113536842D01*
X132265990Y-113266589D01*
X132127491Y-113059310D01*
X136049904Y-109136898D01*
X136078901Y-109113101D01*
X136122852Y-109059547D01*
X136173874Y-108997377D01*
X136244446Y-108865347D01*
X136244446Y-108865346D01*
X136287903Y-108722086D01*
X136298900Y-108610433D01*
X136298900Y-108610423D01*
X136302576Y-108573100D01*
X136298900Y-108535777D01*
X136298900Y-106225901D01*
X139664701Y-102860101D01*
X139664700Y-108452498D01*
G37*
%TD.AperFunction*%
D15*
X129796525Y-112376632D02*
X130003368Y-112583475D01*
X130177760Y-112700000D01*
X130003368Y-112816525D01*
X129796525Y-113023368D01*
X129705000Y-113160345D01*
X129705000Y-112239655D01*
X129796525Y-112376632D01*
%TA.AperFunction,NonConductor*%
D16*
G36*
X129796525Y-112376632D02*
G01*
X130003368Y-112583475D01*
X130177760Y-112700000D01*
X130003368Y-112816525D01*
X129796525Y-113023368D01*
X129705000Y-113160345D01*
X129705000Y-112239655D01*
X129796525Y-112376632D01*
G37*
%TD.AperFunction*%
D15*
X170295000Y-113160345D02*
X170203475Y-113023368D01*
X169996632Y-112816525D01*
X169822240Y-112700000D01*
X169996632Y-112583475D01*
X170203475Y-112376632D01*
X170295000Y-112239655D01*
X170295000Y-113160345D01*
%TA.AperFunction,NonConductor*%
D16*
G36*
X170295000Y-113160345D02*
G01*
X170203475Y-113023368D01*
X169996632Y-112816525D01*
X169822240Y-112700000D01*
X169996632Y-112583475D01*
X170203475Y-112376632D01*
X170295000Y-112239655D01*
X170295000Y-113160345D01*
G37*
%TD.AperFunction*%
D15*
X134778900Y-108258298D02*
X132279059Y-110758140D01*
X132265990Y-110726589D01*
X132103475Y-110483368D01*
X131896632Y-110276525D01*
X131722240Y-110160000D01*
X131896632Y-110043475D01*
X132103475Y-109836632D01*
X132232796Y-109643089D01*
X132274286Y-109639003D01*
X132417547Y-109595546D01*
X132549576Y-109524974D01*
X132665301Y-109430001D01*
X132760274Y-109314276D01*
X132830846Y-109182247D01*
X132874303Y-109038986D01*
X132888977Y-108890000D01*
X132885300Y-108852667D01*
X132885300Y-108039501D01*
X134778901Y-106145900D01*
X134778900Y-108258298D01*
%TA.AperFunction,NonConductor*%
D16*
G36*
X134778900Y-108258298D02*
G01*
X132279059Y-110758140D01*
X132265990Y-110726589D01*
X132103475Y-110483368D01*
X131896632Y-110276525D01*
X131722240Y-110160000D01*
X131896632Y-110043475D01*
X132103475Y-109836632D01*
X132232796Y-109643089D01*
X132274286Y-109639003D01*
X132417547Y-109595546D01*
X132549576Y-109524974D01*
X132665301Y-109430001D01*
X132760274Y-109314276D01*
X132830846Y-109182247D01*
X132874303Y-109038986D01*
X132888977Y-108890000D01*
X132885300Y-108852667D01*
X132885300Y-108039501D01*
X134778901Y-106145900D01*
X134778900Y-108258298D01*
G37*
%TD.AperFunction*%
D15*
X129796525Y-109836632D02*
X130003368Y-110043475D01*
X130177760Y-110160000D01*
X130003368Y-110276525D01*
X129796525Y-110483368D01*
X129705000Y-110620345D01*
X129705000Y-109699655D01*
X129796525Y-109836632D01*
%TA.AperFunction,NonConductor*%
D16*
G36*
X129796525Y-109836632D02*
G01*
X130003368Y-110043475D01*
X130177760Y-110160000D01*
X130003368Y-110276525D01*
X129796525Y-110483368D01*
X129705000Y-110620345D01*
X129705000Y-109699655D01*
X129796525Y-109836632D01*
G37*
%TD.AperFunction*%
D15*
X170295000Y-110620345D02*
X170203475Y-110483368D01*
X169996632Y-110276525D01*
X169822240Y-110160000D01*
X169996632Y-110043475D01*
X170203475Y-109836632D01*
X170295000Y-109699655D01*
X170295000Y-110620345D01*
%TA.AperFunction,NonConductor*%
D16*
G36*
X170295000Y-110620345D02*
G01*
X170203475Y-110483368D01*
X169996632Y-110276525D01*
X169822240Y-110160000D01*
X169996632Y-110043475D01*
X170203475Y-109836632D01*
X170295000Y-109699655D01*
X170295000Y-110620345D01*
G37*
%TD.AperFunction*%
D15*
X129796525Y-107296632D02*
X130003368Y-107503475D01*
X130177760Y-107620000D01*
X130003368Y-107736525D01*
X129796525Y-107943368D01*
X129705000Y-108080345D01*
X129705000Y-107159655D01*
X129796525Y-107296632D01*
%TA.AperFunction,NonConductor*%
D16*
G36*
X129796525Y-107296632D02*
G01*
X130003368Y-107503475D01*
X130177760Y-107620000D01*
X130003368Y-107736525D01*
X129796525Y-107943368D01*
X129705000Y-108080345D01*
X129705000Y-107159655D01*
X129796525Y-107296632D01*
G37*
%TD.AperFunction*%
D15*
X170295000Y-108080345D02*
X170203475Y-107943368D01*
X169996632Y-107736525D01*
X169822240Y-107620000D01*
X169996632Y-107503475D01*
X170203475Y-107296632D01*
X170295000Y-107159655D01*
X170295000Y-108080345D01*
%TA.AperFunction,NonConductor*%
D16*
G36*
X170295000Y-108080345D02*
G01*
X170203475Y-107943368D01*
X169996632Y-107736525D01*
X169822240Y-107620000D01*
X169996632Y-107503475D01*
X170203475Y-107296632D01*
X170295000Y-107159655D01*
X170295000Y-108080345D01*
G37*
%TD.AperFunction*%
D15*
X140529550Y-97555394D02*
X140574156Y-97600000D01*
X140529550Y-97644606D01*
X140399866Y-97838692D01*
X140310539Y-98054348D01*
X140265000Y-98283288D01*
X140265000Y-98510198D01*
X132435000Y-106340199D01*
X132435000Y-106203740D01*
X132377932Y-105916842D01*
X132294583Y-105715619D01*
X132295701Y-105714701D01*
X132319504Y-105685697D01*
X140497610Y-97507592D01*
X140529550Y-97555394D01*
%TA.AperFunction,NonConductor*%
D16*
G36*
X140529550Y-97555394D02*
G01*
X140574156Y-97600000D01*
X140529550Y-97644606D01*
X140399866Y-97838692D01*
X140310539Y-98054348D01*
X140265000Y-98283288D01*
X140265000Y-98510198D01*
X132435000Y-106340199D01*
X132435000Y-106203740D01*
X132377932Y-105916842D01*
X132294583Y-105715619D01*
X132295701Y-105714701D01*
X132319504Y-105685697D01*
X140497610Y-97507592D01*
X140529550Y-97555394D01*
G37*
%TD.AperFunction*%
D15*
X155250163Y-92905974D02*
X155294101Y-92949912D01*
X155294100Y-96666777D01*
X155290424Y-96704100D01*
X155294100Y-96741422D01*
X155294100Y-96741432D01*
X155305097Y-96853085D01*
X155342730Y-96977147D01*
X155348554Y-96996346D01*
X155419126Y-97128376D01*
X155457983Y-97175723D01*
X155514099Y-97244101D01*
X155543102Y-97267903D01*
X155765000Y-97489801D01*
X155765000Y-97716712D01*
X155810539Y-97945652D01*
X155899866Y-98161308D01*
X156029550Y-98355394D01*
X156074156Y-98400000D01*
X156029550Y-98444606D01*
X155899866Y-98638692D01*
X155810539Y-98854348D01*
X155765000Y-99083288D01*
X155765000Y-99316712D01*
X155810539Y-99545652D01*
X155899866Y-99761308D01*
X156029550Y-99955394D01*
X156074156Y-100000000D01*
X156029550Y-100044606D01*
X155899866Y-100238692D01*
X155810539Y-100454348D01*
X155765000Y-100683288D01*
X155765000Y-100916712D01*
X155810539Y-101145652D01*
X155899866Y-101361308D01*
X156029550Y-101555394D01*
X156074156Y-101600000D01*
X156029550Y-101644606D01*
X155899866Y-101838692D01*
X155810539Y-102054348D01*
X155765000Y-102283288D01*
X155765000Y-102510199D01*
X155541898Y-102733301D01*
X155512900Y-102757099D01*
X155489102Y-102786097D01*
X155489101Y-102786098D01*
X155417926Y-102872824D01*
X155347354Y-103004854D01*
X155333352Y-103051014D01*
X155304748Y-103145314D01*
X155303898Y-103148115D01*
X155289224Y-103297100D01*
X155292901Y-103334432D01*
X155292900Y-104305577D01*
X155289224Y-104342900D01*
X155292900Y-104380222D01*
X155292900Y-104380232D01*
X155303897Y-104491885D01*
X155332493Y-104586154D01*
X155347354Y-104635146D01*
X155417926Y-104767176D01*
X155457523Y-104815424D01*
X155460539Y-104819100D01*
X150608222Y-104819100D01*
X150570899Y-104815424D01*
X150533576Y-104819100D01*
X150533567Y-104819100D01*
X150421914Y-104830097D01*
X150278653Y-104873554D01*
X150146624Y-104944126D01*
X150030899Y-105039099D01*
X150007101Y-105068097D01*
X149310199Y-105765000D01*
X149083288Y-105765000D01*
X148854348Y-105810539D01*
X148638692Y-105899866D01*
X148444606Y-106029550D01*
X148400000Y-106074156D01*
X148355394Y-106029550D01*
X148161308Y-105899866D01*
X147945652Y-105810539D01*
X147716712Y-105765000D01*
X147489801Y-105765000D01*
X147288403Y-105563602D01*
X147264601Y-105534599D01*
X147148876Y-105439626D01*
X147016847Y-105369054D01*
X146873586Y-105325597D01*
X146761933Y-105314600D01*
X146761922Y-105314600D01*
X146724600Y-105310924D01*
X146687278Y-105314600D01*
X145612525Y-105314600D01*
X145575200Y-105310924D01*
X145537875Y-105314600D01*
X145537867Y-105314600D01*
X145426214Y-105325597D01*
X145282953Y-105369054D01*
X145150924Y-105439626D01*
X145035199Y-105534599D01*
X145011396Y-105563603D01*
X144704300Y-105870699D01*
X144704300Y-103331622D01*
X144707976Y-103294299D01*
X144704300Y-103256976D01*
X144704300Y-103256967D01*
X144693303Y-103145314D01*
X144649846Y-103002053D01*
X144579274Y-102870024D01*
X144484301Y-102754299D01*
X144455304Y-102730502D01*
X144235000Y-102510198D01*
X144235000Y-102283288D01*
X144189461Y-102054348D01*
X144100134Y-101838692D01*
X143970450Y-101644606D01*
X143925844Y-101600000D01*
X143970450Y-101555394D01*
X144100134Y-101361308D01*
X144189461Y-101145652D01*
X144235000Y-100916712D01*
X144235000Y-100683288D01*
X144189461Y-100454348D01*
X144100134Y-100238692D01*
X143970450Y-100044606D01*
X143925844Y-100000000D01*
X143970450Y-99955394D01*
X144100134Y-99761308D01*
X144189461Y-99545652D01*
X144235000Y-99316712D01*
X144235000Y-99083288D01*
X144189461Y-98854348D01*
X144100134Y-98638692D01*
X143970450Y-98444606D01*
X143925844Y-98400000D01*
X143970450Y-98355394D01*
X144100134Y-98161308D01*
X144189461Y-97945652D01*
X144235000Y-97716712D01*
X144235000Y-97489802D01*
X144476103Y-97248699D01*
X144505101Y-97224901D01*
X144600074Y-97109176D01*
X144670646Y-96977147D01*
X144714103Y-96833886D01*
X144725100Y-96722233D01*
X144725100Y-96722223D01*
X144728776Y-96684900D01*
X144725100Y-96647577D01*
X144725100Y-95703122D01*
X144728776Y-95665799D01*
X144725100Y-95628476D01*
X144725100Y-95628467D01*
X144714103Y-95516814D01*
X144670646Y-95373553D01*
X144600074Y-95241524D01*
X144505101Y-95125799D01*
X144476103Y-95102002D01*
X144059501Y-94685400D01*
X149887278Y-94685400D01*
X149924600Y-94689076D01*
X149961922Y-94685400D01*
X149961933Y-94685400D01*
X150073586Y-94674403D01*
X150216847Y-94630946D01*
X150348876Y-94560374D01*
X150464601Y-94465401D01*
X150488403Y-94436398D01*
X150689801Y-94235000D01*
X150916712Y-94235000D01*
X151145652Y-94189461D01*
X151361308Y-94100134D01*
X151555394Y-93970450D01*
X151600000Y-93925844D01*
X151644606Y-93970450D01*
X151838692Y-94100134D01*
X152054348Y-94189461D01*
X152283288Y-94235000D01*
X152516712Y-94235000D01*
X152745652Y-94189461D01*
X152961308Y-94100134D01*
X153155394Y-93970450D01*
X153200000Y-93925844D01*
X153244606Y-93970450D01*
X153438692Y-94100134D01*
X153654348Y-94189461D01*
X153883288Y-94235000D01*
X154116712Y-94235000D01*
X154345652Y-94189461D01*
X154561308Y-94100134D01*
X154755394Y-93970450D01*
X154920450Y-93805394D01*
X155050134Y-93611308D01*
X155139461Y-93395652D01*
X155185000Y-93166712D01*
X155185000Y-92933288D01*
X155149643Y-92755534D01*
X155250163Y-92905974D01*
%TA.AperFunction,NonConductor*%
D16*
G36*
X155250163Y-92905974D02*
G01*
X155294101Y-92949912D01*
X155294100Y-96666777D01*
X155290424Y-96704100D01*
X155294100Y-96741422D01*
X155294100Y-96741432D01*
X155305097Y-96853085D01*
X155342730Y-96977147D01*
X155348554Y-96996346D01*
X155419126Y-97128376D01*
X155457983Y-97175723D01*
X155514099Y-97244101D01*
X155543102Y-97267903D01*
X155765000Y-97489801D01*
X155765000Y-97716712D01*
X155810539Y-97945652D01*
X155899866Y-98161308D01*
X156029550Y-98355394D01*
X156074156Y-98400000D01*
X156029550Y-98444606D01*
X155899866Y-98638692D01*
X155810539Y-98854348D01*
X155765000Y-99083288D01*
X155765000Y-99316712D01*
X155810539Y-99545652D01*
X155899866Y-99761308D01*
X156029550Y-99955394D01*
X156074156Y-100000000D01*
X156029550Y-100044606D01*
X155899866Y-100238692D01*
X155810539Y-100454348D01*
X155765000Y-100683288D01*
X155765000Y-100916712D01*
X155810539Y-101145652D01*
X155899866Y-101361308D01*
X156029550Y-101555394D01*
X156074156Y-101600000D01*
X156029550Y-101644606D01*
X155899866Y-101838692D01*
X155810539Y-102054348D01*
X155765000Y-102283288D01*
X155765000Y-102510199D01*
X155541898Y-102733301D01*
X155512900Y-102757099D01*
X155489102Y-102786097D01*
X155489101Y-102786098D01*
X155417926Y-102872824D01*
X155347354Y-103004854D01*
X155333352Y-103051014D01*
X155304748Y-103145314D01*
X155303898Y-103148115D01*
X155289224Y-103297100D01*
X155292901Y-103334432D01*
X155292900Y-104305577D01*
X155289224Y-104342900D01*
X155292900Y-104380222D01*
X155292900Y-104380232D01*
X155303897Y-104491885D01*
X155332493Y-104586154D01*
X155347354Y-104635146D01*
X155417926Y-104767176D01*
X155457523Y-104815424D01*
X155460539Y-104819100D01*
X150608222Y-104819100D01*
X150570899Y-104815424D01*
X150533576Y-104819100D01*
X150533567Y-104819100D01*
X150421914Y-104830097D01*
X150278653Y-104873554D01*
X150146624Y-104944126D01*
X150030899Y-105039099D01*
X150007101Y-105068097D01*
X149310199Y-105765000D01*
X149083288Y-105765000D01*
X148854348Y-105810539D01*
X148638692Y-105899866D01*
X148444606Y-106029550D01*
X148400000Y-106074156D01*
X148355394Y-106029550D01*
X148161308Y-105899866D01*
X147945652Y-105810539D01*
X147716712Y-105765000D01*
X147489801Y-105765000D01*
X147288403Y-105563602D01*
X147264601Y-105534599D01*
X147148876Y-105439626D01*
X147016847Y-105369054D01*
X146873586Y-105325597D01*
X146761933Y-105314600D01*
X146761922Y-105314600D01*
X146724600Y-105310924D01*
X146687278Y-105314600D01*
X145612525Y-105314600D01*
X145575200Y-105310924D01*
X145537875Y-105314600D01*
X145537867Y-105314600D01*
X145426214Y-105325597D01*
X145282953Y-105369054D01*
X145150924Y-105439626D01*
X145035199Y-105534599D01*
X145011396Y-105563603D01*
X144704300Y-105870699D01*
X144704300Y-103331622D01*
X144707976Y-103294299D01*
X144704300Y-103256976D01*
X144704300Y-103256967D01*
X144693303Y-103145314D01*
X144649846Y-103002053D01*
X144579274Y-102870024D01*
X144484301Y-102754299D01*
X144455304Y-102730502D01*
X144235000Y-102510198D01*
X144235000Y-102283288D01*
X144189461Y-102054348D01*
X144100134Y-101838692D01*
X143970450Y-101644606D01*
X143925844Y-101600000D01*
X143970450Y-101555394D01*
X144100134Y-101361308D01*
X144189461Y-101145652D01*
X144235000Y-100916712D01*
X144235000Y-100683288D01*
X144189461Y-100454348D01*
X144100134Y-100238692D01*
X143970450Y-100044606D01*
X143925844Y-100000000D01*
X143970450Y-99955394D01*
X144100134Y-99761308D01*
X144189461Y-99545652D01*
X144235000Y-99316712D01*
X144235000Y-99083288D01*
X144189461Y-98854348D01*
X144100134Y-98638692D01*
X143970450Y-98444606D01*
X143925844Y-98400000D01*
X143970450Y-98355394D01*
X144100134Y-98161308D01*
X144189461Y-97945652D01*
X144235000Y-97716712D01*
X144235000Y-97489802D01*
X144476103Y-97248699D01*
X144505101Y-97224901D01*
X144600074Y-97109176D01*
X144670646Y-96977147D01*
X144714103Y-96833886D01*
X144725100Y-96722233D01*
X144725100Y-96722223D01*
X144728776Y-96684900D01*
X144725100Y-96647577D01*
X144725100Y-95703122D01*
X144728776Y-95665799D01*
X144725100Y-95628476D01*
X144725100Y-95628467D01*
X144714103Y-95516814D01*
X144670646Y-95373553D01*
X144600074Y-95241524D01*
X144505101Y-95125799D01*
X144476103Y-95102002D01*
X144059501Y-94685400D01*
X149887278Y-94685400D01*
X149924600Y-94689076D01*
X149961922Y-94685400D01*
X149961933Y-94685400D01*
X150073586Y-94674403D01*
X150216847Y-94630946D01*
X150348876Y-94560374D01*
X150464601Y-94465401D01*
X150488403Y-94436398D01*
X150689801Y-94235000D01*
X150916712Y-94235000D01*
X151145652Y-94189461D01*
X151361308Y-94100134D01*
X151555394Y-93970450D01*
X151600000Y-93925844D01*
X151644606Y-93970450D01*
X151838692Y-94100134D01*
X152054348Y-94189461D01*
X152283288Y-94235000D01*
X152516712Y-94235000D01*
X152745652Y-94189461D01*
X152961308Y-94100134D01*
X153155394Y-93970450D01*
X153200000Y-93925844D01*
X153244606Y-93970450D01*
X153438692Y-94100134D01*
X153654348Y-94189461D01*
X153883288Y-94235000D01*
X154116712Y-94235000D01*
X154345652Y-94189461D01*
X154561308Y-94100134D01*
X154755394Y-93970450D01*
X154920450Y-93805394D01*
X155050134Y-93611308D01*
X155139461Y-93395652D01*
X155185000Y-93166712D01*
X155185000Y-92933288D01*
X155149643Y-92755534D01*
X155250163Y-92905974D01*
G37*
%TD.AperFunction*%
D15*
X170295000Y-105540345D02*
X170203475Y-105403368D01*
X169996632Y-105196525D01*
X169822240Y-105080000D01*
X169996632Y-104963475D01*
X170203475Y-104756632D01*
X170295000Y-104619654D01*
X170295000Y-105540345D01*
%TA.AperFunction,NonConductor*%
D16*
G36*
X170295000Y-105540345D02*
G01*
X170203475Y-105403368D01*
X169996632Y-105196525D01*
X169822240Y-105080000D01*
X169996632Y-104963475D01*
X170203475Y-104756632D01*
X170295000Y-104619654D01*
X170295000Y-105540345D01*
G37*
%TD.AperFunction*%
D15*
X129796525Y-104756632D02*
X130003368Y-104963475D01*
X130177760Y-105080000D01*
X130003368Y-105196525D01*
X129796525Y-105403368D01*
X129705000Y-105540345D01*
X129705000Y-104619655D01*
X129796525Y-104756632D01*
%TA.AperFunction,NonConductor*%
D16*
G36*
X129796525Y-104756632D02*
G01*
X130003368Y-104963475D01*
X130177760Y-105080000D01*
X130003368Y-105196525D01*
X129796525Y-105403368D01*
X129705000Y-105540345D01*
X129705000Y-104619655D01*
X129796525Y-104756632D01*
G37*
%TD.AperFunction*%
D15*
X141905198Y-94344700D02*
X141863033Y-94344700D01*
X141825700Y-94341023D01*
X141788367Y-94344700D01*
X141676714Y-94355697D01*
X141533453Y-94399154D01*
X141401424Y-94469726D01*
X141285699Y-94564699D01*
X141261901Y-94593697D01*
X132394660Y-103460939D01*
X132377932Y-103376842D01*
X132265990Y-103106589D01*
X132103475Y-102863368D01*
X131896632Y-102656525D01*
X131722240Y-102540000D01*
X131896632Y-102423475D01*
X132103475Y-102216632D01*
X132265990Y-101973411D01*
X132377932Y-101703158D01*
X132435000Y-101416260D01*
X132435000Y-101123740D01*
X132377932Y-100836842D01*
X132265990Y-100566589D01*
X132103475Y-100323368D01*
X131896632Y-100116525D01*
X131722240Y-100000000D01*
X131896632Y-99883475D01*
X132103475Y-99676632D01*
X132265990Y-99433411D01*
X132377932Y-99163158D01*
X132435000Y-98876260D01*
X132435000Y-98583740D01*
X132377932Y-98296842D01*
X132265990Y-98026589D01*
X132103475Y-97783368D01*
X131896632Y-97576525D01*
X131722240Y-97460000D01*
X131896632Y-97343475D01*
X132103475Y-97136632D01*
X132265990Y-96893411D01*
X132377932Y-96623158D01*
X132435000Y-96336260D01*
X132435000Y-96043740D01*
X132377932Y-95756842D01*
X132265990Y-95486589D01*
X132103475Y-95243368D01*
X131896632Y-95036525D01*
X131722240Y-94920000D01*
X131896632Y-94803475D01*
X132050303Y-94649804D01*
X132092000Y-94691502D01*
X132115799Y-94720501D01*
X132231524Y-94815474D01*
X132363553Y-94886046D01*
X132506814Y-94929503D01*
X132618467Y-94940500D01*
X132618476Y-94940500D01*
X132655799Y-94944176D01*
X132693122Y-94940500D01*
X138356822Y-94940500D01*
X138438002Y-94974126D01*
X138637961Y-95013900D01*
X138841839Y-95013900D01*
X139041798Y-94974126D01*
X139230156Y-94896105D01*
X139399674Y-94782837D01*
X139543837Y-94638674D01*
X139657105Y-94469156D01*
X139735126Y-94280798D01*
X139774900Y-94080839D01*
X139774900Y-93876961D01*
X139735126Y-93677002D01*
X139657105Y-93488644D01*
X139543837Y-93319126D01*
X139399674Y-93174963D01*
X139230156Y-93061695D01*
X139041798Y-92983674D01*
X138841839Y-92943900D01*
X138637961Y-92943900D01*
X138438002Y-92983674D01*
X138249644Y-93061695D01*
X138117502Y-93149989D01*
X138040605Y-92964344D01*
X137927337Y-92794826D01*
X137783174Y-92650663D01*
X137613656Y-92537395D01*
X137425298Y-92459374D01*
X137225339Y-92419600D01*
X137049702Y-92419600D01*
X132689104Y-88059003D01*
X132665301Y-88029999D01*
X132549576Y-87935026D01*
X132417547Y-87864454D01*
X132274286Y-87820997D01*
X132232796Y-87816911D01*
X132103475Y-87623368D01*
X131896632Y-87416525D01*
X131722240Y-87300000D01*
X131896632Y-87183475D01*
X132103475Y-86976632D01*
X132265990Y-86733411D01*
X132377932Y-86463158D01*
X132435000Y-86176260D01*
X132435000Y-85883740D01*
X132377932Y-85596842D01*
X132265990Y-85326589D01*
X132103475Y-85083368D01*
X131896632Y-84876525D01*
X131722240Y-84760000D01*
X131896632Y-84643475D01*
X132050303Y-84489804D01*
X141905198Y-94344700D01*
%TA.AperFunction,NonConductor*%
D16*
G36*
X141905198Y-94344700D02*
G01*
X141863033Y-94344700D01*
X141825700Y-94341023D01*
X141788367Y-94344700D01*
X141676714Y-94355697D01*
X141533453Y-94399154D01*
X141401424Y-94469726D01*
X141285699Y-94564699D01*
X141261901Y-94593697D01*
X132394660Y-103460939D01*
X132377932Y-103376842D01*
X132265990Y-103106589D01*
X132103475Y-102863368D01*
X131896632Y-102656525D01*
X131722240Y-102540000D01*
X131896632Y-102423475D01*
X132103475Y-102216632D01*
X132265990Y-101973411D01*
X132377932Y-101703158D01*
X132435000Y-101416260D01*
X132435000Y-101123740D01*
X132377932Y-100836842D01*
X132265990Y-100566589D01*
X132103475Y-100323368D01*
X131896632Y-100116525D01*
X131722240Y-100000000D01*
X131896632Y-99883475D01*
X132103475Y-99676632D01*
X132265990Y-99433411D01*
X132377932Y-99163158D01*
X132435000Y-98876260D01*
X132435000Y-98583740D01*
X132377932Y-98296842D01*
X132265990Y-98026589D01*
X132103475Y-97783368D01*
X131896632Y-97576525D01*
X131722240Y-97460000D01*
X131896632Y-97343475D01*
X132103475Y-97136632D01*
X132265990Y-96893411D01*
X132377932Y-96623158D01*
X132435000Y-96336260D01*
X132435000Y-96043740D01*
X132377932Y-95756842D01*
X132265990Y-95486589D01*
X132103475Y-95243368D01*
X131896632Y-95036525D01*
X131722240Y-94920000D01*
X131896632Y-94803475D01*
X132050303Y-94649804D01*
X132092000Y-94691502D01*
X132115799Y-94720501D01*
X132231524Y-94815474D01*
X132363553Y-94886046D01*
X132506814Y-94929503D01*
X132618467Y-94940500D01*
X132618476Y-94940500D01*
X132655799Y-94944176D01*
X132693122Y-94940500D01*
X138356822Y-94940500D01*
X138438002Y-94974126D01*
X138637961Y-95013900D01*
X138841839Y-95013900D01*
X139041798Y-94974126D01*
X139230156Y-94896105D01*
X139399674Y-94782837D01*
X139543837Y-94638674D01*
X139657105Y-94469156D01*
X139735126Y-94280798D01*
X139774900Y-94080839D01*
X139774900Y-93876961D01*
X139735126Y-93677002D01*
X139657105Y-93488644D01*
X139543837Y-93319126D01*
X139399674Y-93174963D01*
X139230156Y-93061695D01*
X139041798Y-92983674D01*
X138841839Y-92943900D01*
X138637961Y-92943900D01*
X138438002Y-92983674D01*
X138249644Y-93061695D01*
X138117502Y-93149989D01*
X138040605Y-92964344D01*
X137927337Y-92794826D01*
X137783174Y-92650663D01*
X137613656Y-92537395D01*
X137425298Y-92459374D01*
X137225339Y-92419600D01*
X137049702Y-92419600D01*
X132689104Y-88059003D01*
X132665301Y-88029999D01*
X132549576Y-87935026D01*
X132417547Y-87864454D01*
X132274286Y-87820997D01*
X132232796Y-87816911D01*
X132103475Y-87623368D01*
X131896632Y-87416525D01*
X131722240Y-87300000D01*
X131896632Y-87183475D01*
X132103475Y-86976632D01*
X132265990Y-86733411D01*
X132377932Y-86463158D01*
X132435000Y-86176260D01*
X132435000Y-85883740D01*
X132377932Y-85596842D01*
X132265990Y-85326589D01*
X132103475Y-85083368D01*
X131896632Y-84876525D01*
X131722240Y-84760000D01*
X131896632Y-84643475D01*
X132050303Y-84489804D01*
X141905198Y-94344700D01*
G37*
%TD.AperFunction*%
D15*
X170295000Y-103000346D02*
X170203475Y-102863368D01*
X169996632Y-102656525D01*
X169822240Y-102540000D01*
X169996632Y-102423475D01*
X170203475Y-102216632D01*
X170295000Y-102079654D01*
X170295000Y-103000346D01*
%TA.AperFunction,NonConductor*%
D16*
G36*
X170295000Y-103000346D02*
G01*
X170203475Y-102863368D01*
X169996632Y-102656525D01*
X169822240Y-102540000D01*
X169996632Y-102423475D01*
X170203475Y-102216632D01*
X170295000Y-102079654D01*
X170295000Y-103000346D01*
G37*
%TD.AperFunction*%
D15*
X129796525Y-102216632D02*
X130003368Y-102423475D01*
X130177760Y-102540000D01*
X130003368Y-102656525D01*
X129796525Y-102863368D01*
X129705000Y-103000345D01*
X129705000Y-102079655D01*
X129796525Y-102216632D01*
%TA.AperFunction,NonConductor*%
D16*
G36*
X129796525Y-102216632D02*
G01*
X130003368Y-102423475D01*
X130177760Y-102540000D01*
X130003368Y-102656525D01*
X129796525Y-102863368D01*
X129705000Y-103000345D01*
X129705000Y-102079655D01*
X129796525Y-102216632D01*
G37*
%TD.AperFunction*%
D15*
X167565000Y-93796260D02*
X167622068Y-94083158D01*
X167709219Y-94293560D01*
X167692201Y-94314297D01*
X159507077Y-102499422D01*
X159470450Y-102444606D01*
X159425844Y-102400000D01*
X159470450Y-102355394D01*
X159600134Y-102161308D01*
X159689461Y-101945652D01*
X159735000Y-101716712D01*
X159735000Y-101489801D01*
X167565000Y-93659802D01*
X167565000Y-93796260D01*
%TA.AperFunction,NonConductor*%
D16*
G36*
X167565000Y-93796260D02*
G01*
X167622068Y-94083158D01*
X167709219Y-94293560D01*
X167692201Y-94314297D01*
X159507077Y-102499422D01*
X159470450Y-102444606D01*
X159425844Y-102400000D01*
X159470450Y-102355394D01*
X159600134Y-102161308D01*
X159689461Y-101945652D01*
X159735000Y-101716712D01*
X159735000Y-101489801D01*
X167565000Y-93659802D01*
X167565000Y-93796260D01*
G37*
%TD.AperFunction*%
D15*
X170295000Y-100460346D02*
X170203475Y-100323368D01*
X169996632Y-100116525D01*
X169822240Y-100000000D01*
X169996632Y-99883475D01*
X170203475Y-99676632D01*
X170295001Y-99539654D01*
X170295000Y-100460346D01*
%TA.AperFunction,NonConductor*%
D16*
G36*
X170295000Y-100460346D02*
G01*
X170203475Y-100323368D01*
X169996632Y-100116525D01*
X169822240Y-100000000D01*
X169996632Y-99883475D01*
X170203475Y-99676632D01*
X170295001Y-99539654D01*
X170295000Y-100460346D01*
G37*
%TD.AperFunction*%
D15*
X129796525Y-99676632D02*
X130003368Y-99883475D01*
X130177760Y-100000000D01*
X130003368Y-100116525D01*
X129796525Y-100323368D01*
X129705000Y-100460345D01*
X129705000Y-99539655D01*
X129796525Y-99676632D01*
%TA.AperFunction,NonConductor*%
D16*
G36*
X129796525Y-99676632D02*
G01*
X130003368Y-99883475D01*
X130177760Y-100000000D01*
X130003368Y-100116525D01*
X129796525Y-100323368D01*
X129705000Y-100460345D01*
X129705000Y-99539655D01*
X129796525Y-99676632D01*
G37*
%TD.AperFunction*%
D15*
X170295001Y-97920346D02*
X170203475Y-97783368D01*
X169996632Y-97576525D01*
X169822240Y-97460000D01*
X169996632Y-97343475D01*
X170203475Y-97136632D01*
X170295001Y-96999654D01*
X170295001Y-97920346D01*
%TA.AperFunction,NonConductor*%
D16*
G36*
X170295001Y-97920346D02*
G01*
X170203475Y-97783368D01*
X169996632Y-97576525D01*
X169822240Y-97460000D01*
X169996632Y-97343475D01*
X170203475Y-97136632D01*
X170295001Y-96999654D01*
X170295001Y-97920346D01*
G37*
%TD.AperFunction*%
D15*
X129796525Y-97136632D02*
X130003368Y-97343475D01*
X130177760Y-97460000D01*
X130003368Y-97576525D01*
X129796525Y-97783368D01*
X129705000Y-97920345D01*
X129705000Y-96999655D01*
X129796525Y-97136632D01*
%TA.AperFunction,NonConductor*%
D16*
G36*
X129796525Y-97136632D02*
G01*
X130003368Y-97343475D01*
X130177760Y-97460000D01*
X130003368Y-97576525D01*
X129796525Y-97783368D01*
X129705000Y-97920345D01*
X129705000Y-96999655D01*
X129796525Y-97136632D01*
G37*
%TD.AperFunction*%
D15*
X167565000Y-86176260D02*
X167622068Y-86463158D01*
X167734010Y-86733411D01*
X167872509Y-86940689D01*
X166139298Y-88673901D01*
X166110300Y-88697699D01*
X166086502Y-88726697D01*
X166086501Y-88726698D01*
X166015326Y-88813424D01*
X165944754Y-88945454D01*
X165914480Y-89045258D01*
X165903638Y-89081002D01*
X165901298Y-89088715D01*
X165886624Y-89237700D01*
X165890301Y-89275032D01*
X165890300Y-91584898D01*
X160335300Y-97139899D01*
X160335300Y-91547501D01*
X161480069Y-90402732D01*
X161553263Y-90512274D01*
X161697426Y-90656437D01*
X161866944Y-90769705D01*
X162055302Y-90847726D01*
X162255261Y-90887500D01*
X162459139Y-90887500D01*
X162659098Y-90847726D01*
X162847456Y-90769705D01*
X163016974Y-90656437D01*
X163161137Y-90512274D01*
X163274405Y-90342756D01*
X163276074Y-90338727D01*
X167565000Y-86049802D01*
X167565000Y-86176260D01*
%TA.AperFunction,NonConductor*%
D16*
G36*
X167565000Y-86176260D02*
G01*
X167622068Y-86463158D01*
X167734010Y-86733411D01*
X167872509Y-86940689D01*
X166139298Y-88673901D01*
X166110300Y-88697699D01*
X166086502Y-88726697D01*
X166086501Y-88726698D01*
X166015326Y-88813424D01*
X165944754Y-88945454D01*
X165914480Y-89045258D01*
X165903638Y-89081002D01*
X165901298Y-89088715D01*
X165886624Y-89237700D01*
X165890301Y-89275032D01*
X165890300Y-91584898D01*
X160335300Y-97139899D01*
X160335300Y-91547501D01*
X161480069Y-90402732D01*
X161553263Y-90512274D01*
X161697426Y-90656437D01*
X161866944Y-90769705D01*
X162055302Y-90847726D01*
X162255261Y-90887500D01*
X162459139Y-90887500D01*
X162659098Y-90847726D01*
X162847456Y-90769705D01*
X163016974Y-90656437D01*
X163161137Y-90512274D01*
X163274405Y-90342756D01*
X163276074Y-90338727D01*
X167565000Y-86049802D01*
X167565000Y-86176260D01*
G37*
%TD.AperFunction*%
D15*
X170295001Y-95380346D02*
X170203475Y-95243368D01*
X169996632Y-95036525D01*
X169822240Y-94920000D01*
X169996632Y-94803475D01*
X170203475Y-94596632D01*
X170295001Y-94459654D01*
X170295001Y-95380346D01*
%TA.AperFunction,NonConductor*%
D16*
G36*
X170295001Y-95380346D02*
G01*
X170203475Y-95243368D01*
X169996632Y-95036525D01*
X169822240Y-94920000D01*
X169996632Y-94803475D01*
X170203475Y-94596632D01*
X170295001Y-94459654D01*
X170295001Y-95380346D01*
G37*
%TD.AperFunction*%
D15*
X129796525Y-94596632D02*
X130003368Y-94803475D01*
X130177760Y-94920000D01*
X130003368Y-95036525D01*
X129796525Y-95243368D01*
X129705000Y-95380345D01*
X129705000Y-94459655D01*
X129796525Y-94596632D01*
%TA.AperFunction,NonConductor*%
D16*
G36*
X129796525Y-94596632D02*
G01*
X130003368Y-94803475D01*
X130177760Y-94920000D01*
X130003368Y-95036525D01*
X129796525Y-95243368D01*
X129705000Y-95380345D01*
X129705000Y-94459655D01*
X129796525Y-94596632D01*
G37*
%TD.AperFunction*%
D15*
X167734010Y-76573411D02*
X167872509Y-76780689D01*
X158039003Y-86614196D01*
X158009999Y-86637999D01*
X157954871Y-86705174D01*
X157915026Y-86753724D01*
X157851285Y-86872974D01*
X157844454Y-86885754D01*
X157800997Y-87029015D01*
X157790000Y-87140668D01*
X157790000Y-87140678D01*
X157786324Y-87178000D01*
X157790000Y-87215322D01*
X157790001Y-95164157D01*
X157710000Y-95084156D01*
X157710000Y-86552801D01*
X167720942Y-76541861D01*
X167734010Y-76573411D01*
%TA.AperFunction,NonConductor*%
D16*
G36*
X167734010Y-76573411D02*
G01*
X167872509Y-76780689D01*
X158039003Y-86614196D01*
X158009999Y-86637999D01*
X157954871Y-86705174D01*
X157915026Y-86753724D01*
X157851285Y-86872974D01*
X157844454Y-86885754D01*
X157800997Y-87029015D01*
X157790000Y-87140668D01*
X157790000Y-87140678D01*
X157786324Y-87178000D01*
X157790000Y-87215322D01*
X157790001Y-95164157D01*
X157710000Y-95084156D01*
X157710000Y-86552801D01*
X167720942Y-76541861D01*
X167734010Y-76573411D01*
G37*
%TD.AperFunction*%
D15*
X135900998Y-93420500D02*
X132970602Y-93420500D01*
X132689103Y-93139002D01*
X132665301Y-93109999D01*
X132549576Y-93015026D01*
X132417547Y-92944454D01*
X132274286Y-92900997D01*
X132232796Y-92896911D01*
X132103475Y-92703368D01*
X131896632Y-92496525D01*
X131722240Y-92380000D01*
X131896632Y-92263475D01*
X132103475Y-92056632D01*
X132265990Y-91813411D01*
X132377932Y-91543158D01*
X132435000Y-91256260D01*
X132435000Y-90963740D01*
X132377932Y-90676842D01*
X132265990Y-90406589D01*
X132103475Y-90163368D01*
X131896632Y-89956525D01*
X131722240Y-89840000D01*
X131896632Y-89723475D01*
X132050303Y-89569804D01*
X135900998Y-93420500D01*
%TA.AperFunction,NonConductor*%
D16*
G36*
X135900998Y-93420500D02*
G01*
X132970602Y-93420500D01*
X132689103Y-93139002D01*
X132665301Y-93109999D01*
X132549576Y-93015026D01*
X132417547Y-92944454D01*
X132274286Y-92900997D01*
X132232796Y-92896911D01*
X132103475Y-92703368D01*
X131896632Y-92496525D01*
X131722240Y-92380000D01*
X131896632Y-92263475D01*
X132103475Y-92056632D01*
X132265990Y-91813411D01*
X132377932Y-91543158D01*
X132435000Y-91256260D01*
X132435000Y-90963740D01*
X132377932Y-90676842D01*
X132265990Y-90406589D01*
X132103475Y-90163368D01*
X131896632Y-89956525D01*
X131722240Y-89840000D01*
X131896632Y-89723475D01*
X132050303Y-89569804D01*
X135900998Y-93420500D01*
G37*
%TD.AperFunction*%
D15*
X151064411Y-90389213D02*
X151038692Y-90399866D01*
X150844606Y-90529550D01*
X150800000Y-90574156D01*
X150755394Y-90529550D01*
X150561308Y-90399866D01*
X150345652Y-90310539D01*
X150116712Y-90265000D01*
X149883288Y-90265000D01*
X149654348Y-90310539D01*
X149438692Y-90399866D01*
X149244606Y-90529550D01*
X149200000Y-90574156D01*
X149155394Y-90529550D01*
X148961308Y-90399866D01*
X148745652Y-90310539D01*
X148516712Y-90265000D01*
X148283288Y-90265000D01*
X148054348Y-90310539D01*
X147838692Y-90399866D01*
X147644606Y-90529550D01*
X147600000Y-90574156D01*
X147555394Y-90529550D01*
X147361308Y-90399866D01*
X147145652Y-90310539D01*
X146916712Y-90265000D01*
X146683288Y-90265000D01*
X146454348Y-90310539D01*
X146238692Y-90399866D01*
X146044606Y-90529550D01*
X145879550Y-90694606D01*
X145749866Y-90888692D01*
X145660539Y-91104348D01*
X145615000Y-91333288D01*
X145615000Y-91566712D01*
X145660539Y-91795652D01*
X145704033Y-91900656D01*
X145654348Y-91910539D01*
X145438692Y-91999866D01*
X145244606Y-92129550D01*
X145079550Y-92294606D01*
X144949866Y-92488692D01*
X144860539Y-92704348D01*
X144815000Y-92933288D01*
X144815000Y-93165400D01*
X142875502Y-93165400D01*
X132689104Y-82979003D01*
X132665301Y-82949999D01*
X132549576Y-82855026D01*
X132417547Y-82784454D01*
X132274286Y-82740997D01*
X132232796Y-82736911D01*
X132103475Y-82543368D01*
X131896632Y-82336525D01*
X131722240Y-82220000D01*
X131896632Y-82103475D01*
X132103475Y-81896632D01*
X132265990Y-81653411D01*
X132377932Y-81383158D01*
X132435000Y-81096260D01*
X132435000Y-80803740D01*
X132377932Y-80516842D01*
X132265990Y-80246589D01*
X132103475Y-80003368D01*
X131896632Y-79796525D01*
X131722240Y-79680000D01*
X131896632Y-79563475D01*
X132103475Y-79356632D01*
X132265990Y-79113411D01*
X132377932Y-78843158D01*
X132435000Y-78556260D01*
X132435000Y-78263740D01*
X132377932Y-77976842D01*
X132265990Y-77706589D01*
X132103475Y-77463368D01*
X131896632Y-77256525D01*
X131722240Y-77140000D01*
X131896632Y-77023475D01*
X132103475Y-76816632D01*
X132228178Y-76630000D01*
X137305199Y-76630000D01*
X151064411Y-90389213D01*
%TA.AperFunction,NonConductor*%
D16*
G36*
X151064411Y-90389213D02*
G01*
X151038692Y-90399866D01*
X150844606Y-90529550D01*
X150800000Y-90574156D01*
X150755394Y-90529550D01*
X150561308Y-90399866D01*
X150345652Y-90310539D01*
X150116712Y-90265000D01*
X149883288Y-90265000D01*
X149654348Y-90310539D01*
X149438692Y-90399866D01*
X149244606Y-90529550D01*
X149200000Y-90574156D01*
X149155394Y-90529550D01*
X148961308Y-90399866D01*
X148745652Y-90310539D01*
X148516712Y-90265000D01*
X148283288Y-90265000D01*
X148054348Y-90310539D01*
X147838692Y-90399866D01*
X147644606Y-90529550D01*
X147600000Y-90574156D01*
X147555394Y-90529550D01*
X147361308Y-90399866D01*
X147145652Y-90310539D01*
X146916712Y-90265000D01*
X146683288Y-90265000D01*
X146454348Y-90310539D01*
X146238692Y-90399866D01*
X146044606Y-90529550D01*
X145879550Y-90694606D01*
X145749866Y-90888692D01*
X145660539Y-91104348D01*
X145615000Y-91333288D01*
X145615000Y-91566712D01*
X145660539Y-91795652D01*
X145704033Y-91900656D01*
X145654348Y-91910539D01*
X145438692Y-91999866D01*
X145244606Y-92129550D01*
X145079550Y-92294606D01*
X144949866Y-92488692D01*
X144860539Y-92704348D01*
X144815000Y-92933288D01*
X144815000Y-93165400D01*
X142875502Y-93165400D01*
X132689104Y-82979003D01*
X132665301Y-82949999D01*
X132549576Y-82855026D01*
X132417547Y-82784454D01*
X132274286Y-82740997D01*
X132232796Y-82736911D01*
X132103475Y-82543368D01*
X131896632Y-82336525D01*
X131722240Y-82220000D01*
X131896632Y-82103475D01*
X132103475Y-81896632D01*
X132265990Y-81653411D01*
X132377932Y-81383158D01*
X132435000Y-81096260D01*
X132435000Y-80803740D01*
X132377932Y-80516842D01*
X132265990Y-80246589D01*
X132103475Y-80003368D01*
X131896632Y-79796525D01*
X131722240Y-79680000D01*
X131896632Y-79563475D01*
X132103475Y-79356632D01*
X132265990Y-79113411D01*
X132377932Y-78843158D01*
X132435000Y-78556260D01*
X132435000Y-78263740D01*
X132377932Y-77976842D01*
X132265990Y-77706589D01*
X132103475Y-77463368D01*
X131896632Y-77256525D01*
X131722240Y-77140000D01*
X131896632Y-77023475D01*
X132103475Y-76816632D01*
X132228178Y-76630000D01*
X137305199Y-76630000D01*
X151064411Y-90389213D01*
G37*
%TD.AperFunction*%
D15*
X170295001Y-92840346D02*
X170203475Y-92703368D01*
X169996632Y-92496525D01*
X169822240Y-92380000D01*
X169996632Y-92263475D01*
X170203475Y-92056632D01*
X170295001Y-91919654D01*
X170295001Y-92840346D01*
%TA.AperFunction,NonConductor*%
D16*
G36*
X170295001Y-92840346D02*
G01*
X170203475Y-92703368D01*
X169996632Y-92496525D01*
X169822240Y-92380000D01*
X169996632Y-92263475D01*
X170203475Y-92056632D01*
X170295001Y-91919654D01*
X170295001Y-92840346D01*
G37*
%TD.AperFunction*%
D15*
X129796525Y-92056632D02*
X130003368Y-92263475D01*
X130177760Y-92380000D01*
X130003368Y-92496525D01*
X129796525Y-92703368D01*
X129705000Y-92840345D01*
X129705000Y-91919655D01*
X129796525Y-92056632D01*
%TA.AperFunction,NonConductor*%
D16*
G36*
X129796525Y-92056632D02*
G01*
X130003368Y-92263475D01*
X130177760Y-92380000D01*
X130003368Y-92496525D01*
X129796525Y-92703368D01*
X129705000Y-92840345D01*
X129705000Y-91919655D01*
X129796525Y-92056632D01*
G37*
%TD.AperFunction*%
D15*
X168103368Y-72176525D02*
X167896525Y-72383368D01*
X167734010Y-72626589D01*
X167622068Y-72896842D01*
X167565000Y-73183740D01*
X167565000Y-73476260D01*
X167622068Y-73763158D01*
X167734010Y-74033411D01*
X167872508Y-74240689D01*
X156438998Y-85674201D01*
X156410000Y-85697999D01*
X156386202Y-85726997D01*
X156386201Y-85726998D01*
X156315026Y-85813724D01*
X156244454Y-85945754D01*
X156200998Y-86089015D01*
X156186324Y-86238000D01*
X156190001Y-86275332D01*
X156190000Y-91217955D01*
X156156039Y-91211200D01*
X155952161Y-91211200D01*
X155752202Y-91250974D01*
X155563844Y-91328995D01*
X155394326Y-91442263D01*
X155250163Y-91586426D01*
X155136895Y-91755944D01*
X155058874Y-91944302D01*
X155019100Y-92144261D01*
X155019100Y-92348139D01*
X155045753Y-92482136D01*
X154920450Y-92294606D01*
X154850600Y-92224756D01*
X154850600Y-91124622D01*
X154854276Y-91087299D01*
X154850600Y-91049976D01*
X154850600Y-91049967D01*
X154839603Y-90938314D01*
X154796146Y-90795053D01*
X154725574Y-90663024D01*
X154684110Y-90612500D01*
X154654399Y-90576296D01*
X154654395Y-90576292D01*
X154630601Y-90547299D01*
X154601610Y-90523507D01*
X136897104Y-72819003D01*
X136873301Y-72789999D01*
X136757576Y-72695026D01*
X136625547Y-72624454D01*
X136482286Y-72580997D01*
X136370633Y-72570000D01*
X136370622Y-72570000D01*
X136333300Y-72566324D01*
X136295978Y-72570000D01*
X132228178Y-72570000D01*
X132103475Y-72383368D01*
X131896632Y-72176525D01*
X131759655Y-72085000D01*
X168240345Y-72085000D01*
X168103368Y-72176525D01*
%TA.AperFunction,NonConductor*%
D16*
G36*
X168103368Y-72176525D02*
G01*
X167896525Y-72383368D01*
X167734010Y-72626589D01*
X167622068Y-72896842D01*
X167565000Y-73183740D01*
X167565000Y-73476260D01*
X167622068Y-73763158D01*
X167734010Y-74033411D01*
X167872508Y-74240689D01*
X156438998Y-85674201D01*
X156410000Y-85697999D01*
X156386202Y-85726997D01*
X156386201Y-85726998D01*
X156315026Y-85813724D01*
X156244454Y-85945754D01*
X156200998Y-86089015D01*
X156186324Y-86238000D01*
X156190001Y-86275332D01*
X156190000Y-91217955D01*
X156156039Y-91211200D01*
X155952161Y-91211200D01*
X155752202Y-91250974D01*
X155563844Y-91328995D01*
X155394326Y-91442263D01*
X155250163Y-91586426D01*
X155136895Y-91755944D01*
X155058874Y-91944302D01*
X155019100Y-92144261D01*
X155019100Y-92348139D01*
X155045753Y-92482136D01*
X154920450Y-92294606D01*
X154850600Y-92224756D01*
X154850600Y-91124622D01*
X154854276Y-91087299D01*
X154850600Y-91049976D01*
X154850600Y-91049967D01*
X154839603Y-90938314D01*
X154796146Y-90795053D01*
X154725574Y-90663024D01*
X154684110Y-90612500D01*
X154654399Y-90576296D01*
X154654395Y-90576292D01*
X154630601Y-90547299D01*
X154601610Y-90523507D01*
X136897104Y-72819003D01*
X136873301Y-72789999D01*
X136757576Y-72695026D01*
X136625547Y-72624454D01*
X136482286Y-72580997D01*
X136370633Y-72570000D01*
X136370622Y-72570000D01*
X136333300Y-72566324D01*
X136295978Y-72570000D01*
X132228178Y-72570000D01*
X132103475Y-72383368D01*
X131896632Y-72176525D01*
X131759655Y-72085000D01*
X168240345Y-72085000D01*
X168103368Y-72176525D01*
G37*
%TD.AperFunction*%
D15*
X167734010Y-89273411D02*
X167896525Y-89516632D01*
X168103368Y-89723475D01*
X168277760Y-89840000D01*
X168103368Y-89956525D01*
X167896525Y-90163368D01*
X167767204Y-90356911D01*
X167725714Y-90360997D01*
X167582453Y-90404454D01*
X167450424Y-90475026D01*
X167410300Y-90507955D01*
X167410300Y-89552501D01*
X167720941Y-89241860D01*
X167734010Y-89273411D01*
%TA.AperFunction,NonConductor*%
D16*
G36*
X167734010Y-89273411D02*
G01*
X167896525Y-89516632D01*
X168103368Y-89723475D01*
X168277760Y-89840000D01*
X168103368Y-89956525D01*
X167896525Y-90163368D01*
X167767204Y-90356911D01*
X167725714Y-90360997D01*
X167582453Y-90404454D01*
X167450424Y-90475026D01*
X167410300Y-90507955D01*
X167410300Y-89552501D01*
X167720941Y-89241860D01*
X167734010Y-89273411D01*
G37*
%TD.AperFunction*%
D15*
X167734010Y-79113411D02*
X167896525Y-79356632D01*
X168103368Y-79563475D01*
X168277760Y-79680000D01*
X168103368Y-79796525D01*
X167896525Y-80003368D01*
X167734010Y-80246589D01*
X167622068Y-80516842D01*
X167565000Y-80803740D01*
X167565000Y-81096260D01*
X167622068Y-81383158D01*
X167734010Y-81653411D01*
X167872509Y-81860689D01*
X159310000Y-90423199D01*
X159310000Y-87492801D01*
X167720941Y-79081860D01*
X167734010Y-79113411D01*
%TA.AperFunction,NonConductor*%
D16*
G36*
X167734010Y-79113411D02*
G01*
X167896525Y-79356632D01*
X168103368Y-79563475D01*
X168277760Y-79680000D01*
X168103368Y-79796525D01*
X167896525Y-80003368D01*
X167734010Y-80246589D01*
X167622068Y-80516842D01*
X167565000Y-80803740D01*
X167565000Y-81096260D01*
X167622068Y-81383158D01*
X167734010Y-81653411D01*
X167872509Y-81860689D01*
X159310000Y-90423199D01*
X159310000Y-87492801D01*
X167720941Y-79081860D01*
X167734010Y-79113411D01*
G37*
%TD.AperFunction*%
D15*
X170295001Y-90300346D02*
X170203475Y-90163368D01*
X169996632Y-89956525D01*
X169822240Y-89840000D01*
X169996632Y-89723475D01*
X170203475Y-89516632D01*
X170295001Y-89379654D01*
X170295001Y-90300346D01*
%TA.AperFunction,NonConductor*%
D16*
G36*
X170295001Y-90300346D02*
G01*
X170203475Y-90163368D01*
X169996632Y-89956525D01*
X169822240Y-89840000D01*
X169996632Y-89723475D01*
X170203475Y-89516632D01*
X170295001Y-89379654D01*
X170295001Y-90300346D01*
G37*
%TD.AperFunction*%
D15*
X129796525Y-89516632D02*
X130003368Y-89723475D01*
X130177760Y-89840000D01*
X130003368Y-89956525D01*
X129796525Y-90163368D01*
X129705000Y-90300345D01*
X129705000Y-89379655D01*
X129796525Y-89516632D01*
%TA.AperFunction,NonConductor*%
D16*
G36*
X129796525Y-89516632D02*
G01*
X130003368Y-89723475D01*
X130177760Y-89840000D01*
X130003368Y-89956525D01*
X129796525Y-90163368D01*
X129705000Y-90300345D01*
X129705000Y-89379655D01*
X129796525Y-89516632D01*
G37*
%TD.AperFunction*%
D15*
X170295001Y-87760346D02*
X170203475Y-87623368D01*
X169996632Y-87416525D01*
X169822240Y-87300000D01*
X169996632Y-87183475D01*
X170203475Y-86976632D01*
X170295001Y-86839654D01*
X170295001Y-87760346D01*
%TA.AperFunction,NonConductor*%
D16*
G36*
X170295001Y-87760346D02*
G01*
X170203475Y-87623368D01*
X169996632Y-87416525D01*
X169822240Y-87300000D01*
X169996632Y-87183475D01*
X170203475Y-86976632D01*
X170295001Y-86839654D01*
X170295001Y-87760346D01*
G37*
%TD.AperFunction*%
D15*
X129796525Y-86976632D02*
X130003368Y-87183475D01*
X130177760Y-87300000D01*
X130003368Y-87416525D01*
X129796525Y-87623368D01*
X129705000Y-87760345D01*
X129705000Y-86839655D01*
X129796525Y-86976632D01*
%TA.AperFunction,NonConductor*%
D16*
G36*
X129796525Y-86976632D02*
G01*
X130003368Y-87183475D01*
X130177760Y-87300000D01*
X130003368Y-87416525D01*
X129796525Y-87623368D01*
X129705000Y-87760345D01*
X129705000Y-86839655D01*
X129796525Y-86976632D01*
G37*
%TD.AperFunction*%
D15*
X170295001Y-85220346D02*
X170203475Y-85083368D01*
X169996632Y-84876525D01*
X169822240Y-84760000D01*
X169996632Y-84643475D01*
X170203475Y-84436632D01*
X170295001Y-84299654D01*
X170295001Y-85220346D01*
%TA.AperFunction,NonConductor*%
D16*
G36*
X170295001Y-85220346D02*
G01*
X170203475Y-85083368D01*
X169996632Y-84876525D01*
X169822240Y-84760000D01*
X169996632Y-84643475D01*
X170203475Y-84436632D01*
X170295001Y-84299654D01*
X170295001Y-85220346D01*
G37*
%TD.AperFunction*%
D15*
X129796525Y-84436632D02*
X130003368Y-84643475D01*
X130177760Y-84760000D01*
X130003368Y-84876525D01*
X129796525Y-85083368D01*
X129705000Y-85220345D01*
X129705000Y-84299655D01*
X129796525Y-84436632D01*
%TA.AperFunction,NonConductor*%
D16*
G36*
X129796525Y-84436632D02*
G01*
X130003368Y-84643475D01*
X130177760Y-84760000D01*
X130003368Y-84876525D01*
X129796525Y-85083368D01*
X129705000Y-85220345D01*
X129705000Y-84299655D01*
X129796525Y-84436632D01*
G37*
%TD.AperFunction*%
D15*
X170295001Y-82680346D02*
X170203475Y-82543368D01*
X169996632Y-82336525D01*
X169822240Y-82220000D01*
X169996632Y-82103475D01*
X170203475Y-81896632D01*
X170295001Y-81759654D01*
X170295001Y-82680346D01*
%TA.AperFunction,NonConductor*%
D16*
G36*
X170295001Y-82680346D02*
G01*
X170203475Y-82543368D01*
X169996632Y-82336525D01*
X169822240Y-82220000D01*
X169996632Y-82103475D01*
X170203475Y-81896632D01*
X170295001Y-81759654D01*
X170295001Y-82680346D01*
G37*
%TD.AperFunction*%
D15*
X129796525Y-81896632D02*
X130003368Y-82103475D01*
X130177760Y-82220000D01*
X130003368Y-82336525D01*
X129796525Y-82543368D01*
X129705000Y-82680345D01*
X129705000Y-81759655D01*
X129796525Y-81896632D01*
%TA.AperFunction,NonConductor*%
D16*
G36*
X129796525Y-81896632D02*
G01*
X130003368Y-82103475D01*
X130177760Y-82220000D01*
X130003368Y-82336525D01*
X129796525Y-82543368D01*
X129705000Y-82680345D01*
X129705000Y-81759655D01*
X129796525Y-81896632D01*
G37*
%TD.AperFunction*%
D15*
X170295001Y-80140346D02*
X170203475Y-80003368D01*
X169996632Y-79796525D01*
X169822240Y-79680000D01*
X169996632Y-79563475D01*
X170203475Y-79356632D01*
X170295001Y-79219654D01*
X170295001Y-80140346D01*
%TA.AperFunction,NonConductor*%
D16*
G36*
X170295001Y-80140346D02*
G01*
X170203475Y-80003368D01*
X169996632Y-79796525D01*
X169822240Y-79680000D01*
X169996632Y-79563475D01*
X170203475Y-79356632D01*
X170295001Y-79219654D01*
X170295001Y-80140346D01*
G37*
%TD.AperFunction*%
D15*
X129796525Y-79356632D02*
X130003368Y-79563475D01*
X130177760Y-79680000D01*
X130003368Y-79796525D01*
X129796525Y-80003368D01*
X129705000Y-80140345D01*
X129705000Y-79219655D01*
X129796525Y-79356632D01*
%TA.AperFunction,NonConductor*%
D16*
G36*
X129796525Y-79356632D02*
G01*
X130003368Y-79563475D01*
X130177760Y-79680000D01*
X130003368Y-79796525D01*
X129796525Y-80003368D01*
X129705000Y-80140345D01*
X129705000Y-79219655D01*
X129796525Y-79356632D01*
G37*
%TD.AperFunction*%
D15*
X170295001Y-77600346D02*
X170203475Y-77463368D01*
X169996632Y-77256525D01*
X169822240Y-77140000D01*
X169996632Y-77023475D01*
X170203475Y-76816632D01*
X170295001Y-76679654D01*
X170295001Y-77600346D01*
%TA.AperFunction,NonConductor*%
D16*
G36*
X170295001Y-77600346D02*
G01*
X170203475Y-77463368D01*
X169996632Y-77256525D01*
X169822240Y-77140000D01*
X169996632Y-77023475D01*
X170203475Y-76816632D01*
X170295001Y-76679654D01*
X170295001Y-77600346D01*
G37*
%TD.AperFunction*%
D15*
X129796525Y-76816632D02*
X130003368Y-77023475D01*
X130177760Y-77140000D01*
X130003368Y-77256525D01*
X129796525Y-77463368D01*
X129705000Y-77600345D01*
X129705000Y-76679655D01*
X129796525Y-76816632D01*
%TA.AperFunction,NonConductor*%
D16*
G36*
X129796525Y-76816632D02*
G01*
X130003368Y-77023475D01*
X130177760Y-77140000D01*
X130003368Y-77256525D01*
X129796525Y-77463368D01*
X129705000Y-77600345D01*
X129705000Y-76679655D01*
X129796525Y-76816632D01*
G37*
%TD.AperFunction*%
D15*
X137038499Y-75110000D02*
X132228178Y-75110000D01*
X132103475Y-74923368D01*
X131896632Y-74716525D01*
X131722240Y-74600000D01*
X131896632Y-74483475D01*
X132103475Y-74276632D01*
X132228178Y-74090000D01*
X136018499Y-74090000D01*
X137038499Y-75110000D01*
%TA.AperFunction,NonConductor*%
D16*
G36*
X137038499Y-75110000D02*
G01*
X132228178Y-75110000D01*
X132103475Y-74923368D01*
X131896632Y-74716525D01*
X131722240Y-74600000D01*
X131896632Y-74483475D01*
X132103475Y-74276632D01*
X132228178Y-74090000D01*
X136018499Y-74090000D01*
X137038499Y-75110000D01*
G37*
%TD.AperFunction*%
D15*
X170295001Y-75060346D02*
X170203475Y-74923368D01*
X169996632Y-74716525D01*
X169822240Y-74600000D01*
X169996632Y-74483475D01*
X170203475Y-74276632D01*
X170295001Y-74139654D01*
X170295001Y-75060346D01*
%TA.AperFunction,NonConductor*%
D16*
G36*
X170295001Y-75060346D02*
G01*
X170203475Y-74923368D01*
X169996632Y-74716525D01*
X169822240Y-74600000D01*
X169996632Y-74483475D01*
X170203475Y-74276632D01*
X170295001Y-74139654D01*
X170295001Y-75060346D01*
G37*
%TD.AperFunction*%
D15*
X129796525Y-74276632D02*
X130003368Y-74483475D01*
X130177760Y-74600000D01*
X130003368Y-74716525D01*
X129796525Y-74923368D01*
X129705000Y-75060345D01*
X129705000Y-74139655D01*
X129796525Y-74276632D01*
%TA.AperFunction,NonConductor*%
D16*
G36*
X129796525Y-74276632D02*
G01*
X130003368Y-74483475D01*
X130177760Y-74600000D01*
X130003368Y-74716525D01*
X129796525Y-74923368D01*
X129705000Y-75060345D01*
X129705000Y-74139655D01*
X129796525Y-74276632D01*
G37*
%TD.AperFunction*%
M02*
