%TF.GenerationSoftware,KiCad,Pcbnew,(5.1.9)-1*%
%TF.CreationDate,2021-03-20T14:40:21+09:00*%
%TF.ProjectId,converter_IC51-0444-467,636f6e76-6572-4746-9572-5f494335312d,1*%
%TF.SameCoordinates,Original*%
%TF.FileFunction,Legend,Bot*%
%TF.FilePolarity,Positive*%
%FSLAX46Y46*%
G04 Gerber Fmt 4.6, Leading zero omitted, Abs format (unit mm)*
G04 Created by KiCad (PCBNEW (5.1.9)-1) date 2021-03-20 14:40:21*
%MOMM*%
%LPD*%
G01*
G04 APERTURE LIST*
%ADD10C,0.150000*%
G04 APERTURE END LIST*
D10*
X154330238Y-126866904D02*
X154330238Y-127438333D01*
X154368333Y-127552619D01*
X154444523Y-127628809D01*
X154558809Y-127666904D01*
X154635000Y-127666904D01*
X153568333Y-127666904D02*
X153949285Y-127666904D01*
X153949285Y-126866904D01*
X152844523Y-127590714D02*
X152882619Y-127628809D01*
X152996904Y-127666904D01*
X153073095Y-127666904D01*
X153187380Y-127628809D01*
X153263571Y-127552619D01*
X153301666Y-127476428D01*
X153339761Y-127324047D01*
X153339761Y-127209761D01*
X153301666Y-127057380D01*
X153263571Y-126981190D01*
X153187380Y-126905000D01*
X153073095Y-126866904D01*
X152996904Y-126866904D01*
X152882619Y-126905000D01*
X152844523Y-126943095D01*
X152273095Y-126866904D02*
X152273095Y-127438333D01*
X152311190Y-127552619D01*
X152387380Y-127628809D01*
X152501666Y-127666904D01*
X152577857Y-127666904D01*
X151511190Y-127666904D02*
X151892142Y-127666904D01*
X151892142Y-126866904D01*
X150787380Y-127590714D02*
X150825476Y-127628809D01*
X150939761Y-127666904D01*
X151015952Y-127666904D01*
X151130238Y-127628809D01*
X151206428Y-127552619D01*
X151244523Y-127476428D01*
X151282619Y-127324047D01*
X151282619Y-127209761D01*
X151244523Y-127057380D01*
X151206428Y-126981190D01*
X151130238Y-126905000D01*
X151015952Y-126866904D01*
X150939761Y-126866904D01*
X150825476Y-126905000D01*
X150787380Y-126943095D01*
X150215952Y-126866904D02*
X150215952Y-127438333D01*
X150254047Y-127552619D01*
X150330238Y-127628809D01*
X150444523Y-127666904D01*
X150520714Y-127666904D01*
X149454047Y-127666904D02*
X149835000Y-127666904D01*
X149835000Y-126866904D01*
X148730238Y-127590714D02*
X148768333Y-127628809D01*
X148882619Y-127666904D01*
X148958809Y-127666904D01*
X149073095Y-127628809D01*
X149149285Y-127552619D01*
X149187380Y-127476428D01*
X149225476Y-127324047D01*
X149225476Y-127209761D01*
X149187380Y-127057380D01*
X149149285Y-126981190D01*
X149073095Y-126905000D01*
X148958809Y-126866904D01*
X148882619Y-126866904D01*
X148768333Y-126905000D01*
X148730238Y-126943095D01*
X148158809Y-126866904D02*
X148158809Y-127438333D01*
X148196904Y-127552619D01*
X148273095Y-127628809D01*
X148387380Y-127666904D01*
X148463571Y-127666904D01*
X147396904Y-127666904D02*
X147777857Y-127666904D01*
X147777857Y-126866904D01*
X146673095Y-127590714D02*
X146711190Y-127628809D01*
X146825476Y-127666904D01*
X146901666Y-127666904D01*
X147015952Y-127628809D01*
X147092142Y-127552619D01*
X147130238Y-127476428D01*
X147168333Y-127324047D01*
X147168333Y-127209761D01*
X147130238Y-127057380D01*
X147092142Y-126981190D01*
X147015952Y-126905000D01*
X146901666Y-126866904D01*
X146825476Y-126866904D01*
X146711190Y-126905000D01*
X146673095Y-126943095D01*
%TO.C,J1*%
X155214285Y-93502380D02*
X155785714Y-93502380D01*
X155500000Y-93502380D02*
X155500000Y-92502380D01*
X155595238Y-92645238D01*
X155690476Y-92740476D01*
X155785714Y-92788095D01*
X157759523Y-104952380D02*
X157140476Y-104952380D01*
X157473809Y-105333333D01*
X157330952Y-105333333D01*
X157235714Y-105380952D01*
X157188095Y-105428571D01*
X157140476Y-105523809D01*
X157140476Y-105761904D01*
X157188095Y-105857142D01*
X157235714Y-105904761D01*
X157330952Y-105952380D01*
X157616666Y-105952380D01*
X157711904Y-105904761D01*
X157759523Y-105857142D01*
X156283333Y-105285714D02*
X156283333Y-105952380D01*
X156521428Y-104904761D02*
X156759523Y-105619047D01*
X156140476Y-105619047D01*
X144761904Y-106497619D02*
X144714285Y-106450000D01*
X144619047Y-106402380D01*
X144380952Y-106402380D01*
X144285714Y-106450000D01*
X144238095Y-106497619D01*
X144190476Y-106592857D01*
X144190476Y-106688095D01*
X144238095Y-106830952D01*
X144809523Y-107402380D01*
X144190476Y-107402380D01*
X143857142Y-106402380D02*
X143238095Y-106402380D01*
X143571428Y-106783333D01*
X143428571Y-106783333D01*
X143333333Y-106830952D01*
X143285714Y-106878571D01*
X143238095Y-106973809D01*
X143238095Y-107211904D01*
X143285714Y-107307142D01*
X143333333Y-107354761D01*
X143428571Y-107402380D01*
X143714285Y-107402380D01*
X143809523Y-107354761D01*
X143857142Y-107307142D01*
X143240476Y-94952380D02*
X143811904Y-94952380D01*
X143526190Y-94952380D02*
X143526190Y-93952380D01*
X143621428Y-94095238D01*
X143716666Y-94190476D01*
X143811904Y-94238095D01*
X142859523Y-94047619D02*
X142811904Y-94000000D01*
X142716666Y-93952380D01*
X142478571Y-93952380D01*
X142383333Y-94000000D01*
X142335714Y-94047619D01*
X142288095Y-94142857D01*
X142288095Y-94238095D01*
X142335714Y-94380952D01*
X142907142Y-94952380D01*
X142288095Y-94952380D01*
%TD*%
M02*
